<svg viewBox="0 0 742 560" fill="none" xmlns="http://www.w3.org/2000/svg">
<g filter="url(#filter0_f_60_86)">
<path d="M127.065 369.621C156.373 427.13 278.35 462.473 399.51 448.562C520.669 434.651 595.13 376.755 565.823 319.246C536.516 261.738 414.538 226.395 293.379 240.305C172.219 254.216 97.7582 312.113 127.065 369.621Z" fill="white" fill-opacity="0.12"/>
</g>
<g filter="url(#filter1_f_60_86)">
<ellipse rx="256.215" ry="137.556" transform="matrix(-0.993473 0.114063 0.454054 0.890974 371 234.784)" fill="#40C61E" fill-opacity="0.2"/>
</g>
<g filter="url(#filter2_f_60_86)">
<path d="M203.042 240.087C218.163 269.758 280.376 288.075 342 281C403.624 273.925 441.322 244.136 426.201 214.465C411.08 184.794 348.866 166.477 287.243 173.552C225.619 180.627 187.921 210.416 203.042 240.087Z" fill="#40C61E" fill-opacity="0.4"/>
</g>
<defs>
<filter id="filter0_f_60_86" x="12.6866" y="129.278" width="667.515" height="430.312" filterUnits="userSpaceOnUse" color-interpolation-filters="sRGB">
<feFlood flood-opacity="0" result="BackgroundImageFix"/>
<feBlend mode="normal" in="SourceGraphic" in2="BackgroundImageFix" result="shape"/>
<feGaussianBlur stdDeviation="54" result="effect1_foregroundBlur_60_86"/>
</filter>
<filter id="filter1_f_60_86" x="0.845581" y="0.759827" width="740.308" height="468.048" filterUnits="userSpaceOnUse" color-interpolation-filters="sRGB">
<feFlood flood-opacity="0" result="BackgroundImageFix"/>
<feBlend mode="normal" in="SourceGraphic" in2="BackgroundImageFix" result="shape"/>
<feGaussianBlur stdDeviation="54" result="effect1_foregroundBlur_60_86"/>
</filter>
<filter id="filter2_f_60_86" x="91.7051" y="64.0328" width="445.833" height="326.486" filterUnits="userSpaceOnUse" color-interpolation-filters="sRGB">
<feFlood flood-opacity="0" result="BackgroundImageFix"/>
<feBlend mode="normal" in="SourceGraphic" in2="BackgroundImageFix" result="shape"/>
<feGaussianBlur stdDeviation="54" result="effect1_foregroundBlur_60_86"/>
</filter>
</defs>
</svg>
