<svg width="265" height="203" viewBox="0 0 265 203" fill="none" xmlns="http://www.w3.org/2000/svg">
<rect width="265" height="50" fill="url(#paint0_linear_36_7526)" fill-opacity="0.45"/>
<path d="M41 25C41 15.6112 33.3888 8 24 8C14.6112 8 7 15.6112 7 25C7 34.3888 14.6112 42 24 42C33.3888 42 41 34.3888 41 25Z" fill="#F00073"/>
<path d="M24 17.775C26.3375 17.775 26.6563 17.775 27.6125 17.775C28.4625 17.775 28.8875 17.9875 29.2063 18.0938C29.6313 18.3063 29.95 18.4125 30.2688 18.7313C30.5875 19.05 30.8 19.3688 30.9063 19.7938C31.0125 20.1125 31.1188 20.5375 31.225 21.3875C31.225 22.3438 31.225 22.5563 31.225 25C31.225 27.4438 31.225 27.6563 31.225 28.6125C31.225 29.4625 31.0125 29.8875 30.9063 30.2063C30.6938 30.6313 30.5875 30.95 30.2688 31.2688C29.95 31.5875 29.6313 31.8 29.2063 31.9063C28.8875 32.0125 28.4625 32.1188 27.6125 32.225C26.6563 32.225 26.4438 32.225 24 32.225C21.5563 32.225 21.3438 32.225 20.3875 32.225C19.5375 32.225 19.1125 32.0125 18.7938 31.9063C18.3688 31.6938 18.05 31.5875 17.7313 31.2688C17.4125 30.95 17.2 30.6313 17.0938 30.2063C16.9875 29.8875 16.8813 29.4625 16.775 28.6125C16.775 27.6563 16.775 27.4438 16.775 25C16.775 22.5563 16.775 22.3438 16.775 21.3875C16.775 20.5375 16.9875 20.1125 17.0938 19.7938C17.3063 19.3688 17.4125 19.05 17.7313 18.7313C18.05 18.4125 18.3688 18.2 18.7938 18.0938C19.1125 17.9875 19.5375 17.8813 20.3875 17.775C21.3438 17.775 21.6625 17.775 24 17.775ZM24 16.1813C21.5563 16.1813 21.3438 16.1813 20.3875 16.1813C19.4313 16.1813 18.7938 16.3938 18.2625 16.6063C17.7313 16.8188 17.2 17.1375 16.6688 17.6688C16.1375 18.2 15.925 18.625 15.6063 19.2625C15.3938 19.7938 15.2875 20.4313 15.1813 21.3875C15.1813 22.3438 15.1813 22.6625 15.1813 25C15.1813 27.4438 15.1813 27.6563 15.1813 28.6125C15.1813 29.5688 15.3938 30.2063 15.6063 30.7375C15.8188 31.2688 16.1375 31.8 16.6688 32.3313C17.2 32.8625 17.625 33.075 18.2625 33.3938C18.7938 33.6063 19.4313 33.7125 20.3875 33.8188C21.3438 33.8188 21.6625 33.8188 24 33.8188C26.3375 33.8188 26.6563 33.8188 27.6125 33.8188C28.5688 33.8188 29.2063 33.6063 29.7375 33.3938C30.2688 33.1813 30.8 32.8625 31.3313 32.3313C31.8625 31.8 32.075 31.375 32.3938 30.7375C32.6063 30.2063 32.7125 29.5688 32.8188 28.6125C32.8188 27.6563 32.8188 27.3375 32.8188 25C32.8188 22.6625 32.8188 22.3438 32.8188 21.3875C32.8188 20.4313 32.6063 19.7938 32.3938 19.2625C32.1813 18.7313 31.8625 18.2 31.3313 17.6688C30.8 17.1375 30.375 16.925 29.7375 16.6063C29.2063 16.3938 28.5688 16.2875 27.6125 16.1813C26.6563 16.1813 26.4438 16.1813 24 16.1813Z" fill="white"/>
<path d="M24 20.4313C21.45 20.4313 19.4313 22.45 19.4313 25C19.4313 27.55 21.45 29.5688 24 29.5688C26.55 29.5688 28.5688 27.55 28.5688 25C28.5688 22.45 26.55 20.4313 24 20.4313ZM24 27.975C22.4063 27.975 21.025 26.7 21.025 25C21.025 23.4063 22.3 22.025 24 22.025C25.5938 22.025 26.975 23.3 26.975 25C26.975 26.5938 25.5938 27.975 24 27.975Z" fill="white"/>
<path d="M28.675 21.3875C29.2618 21.3875 29.7375 20.9118 29.7375 20.325C29.7375 19.7382 29.2618 19.2625 28.675 19.2625C28.0882 19.2625 27.6125 19.7382 27.6125 20.325C27.6125 20.9118 28.0882 21.3875 28.675 21.3875Z" fill="white"/>
<g filter="url(#filter0_d_36_7526)">
<path d="M48.7457 32.0952C47.9904 32.0952 47.3181 31.9922 46.7286 31.7862C46.1391 31.5826 45.6408 31.2831 45.2336 30.8878C44.8264 30.4948 44.5162 30.0142 44.3032 29.446C44.0901 28.8778 43.9836 28.2315 43.9836 27.5071C43.9836 26.7921 44.0901 26.1435 44.3032 25.5611C44.5186 24.9787 44.8323 24.4792 45.2442 24.0625C45.6562 23.6435 46.1592 23.3215 46.7535 23.0966C47.3501 22.8717 48.0295 22.7592 48.7918 22.7592C49.4973 22.7592 50.127 22.8622 50.681 23.0682C51.2374 23.2741 51.7085 23.5677 52.0944 23.9489C52.4826 24.3277 52.7774 24.7786 52.9786 25.3018C53.1822 25.8227 53.2828 26.3991 53.2805 27.0312C53.2828 27.4669 53.2449 27.867 53.1668 28.2315C53.0887 28.5961 52.9656 28.9145 52.7975 29.1868C52.6318 29.4567 52.414 29.6709 52.1441 29.8295C51.8742 29.9858 51.5475 30.0746 51.164 30.0959C50.8894 30.1172 50.6668 30.0971 50.4964 30.0355C50.3259 29.974 50.1957 29.8828 50.1057 29.7621C50.0181 29.639 49.9613 29.4957 49.9353 29.3324H49.8927C49.8358 29.4744 49.7246 29.6035 49.5589 29.7195C49.3931 29.8331 49.1907 29.9219 48.9516 29.9858C48.7149 30.0473 48.4627 30.0698 48.1952 30.0533C47.9159 30.0367 47.6507 29.9716 47.3998 29.858C47.1512 29.7443 46.9298 29.5798 46.7357 29.3643C46.5439 29.1489 46.3924 28.8826 46.2812 28.5653C46.1723 28.2481 46.1166 27.8812 46.1143 27.4645C46.1166 27.0526 46.1746 26.6939 46.2883 26.3885C46.4043 26.0831 46.557 25.8262 46.7464 25.6179C46.9381 25.4096 47.1512 25.2462 47.3856 25.1278C47.6199 25.0095 47.8555 24.9337 48.0922 24.9006C48.3598 24.8603 48.6131 24.8603 48.8522 24.9006C49.0913 24.9408 49.2925 25.0059 49.4559 25.0959C49.6216 25.1858 49.7246 25.2829 49.7648 25.3871H49.8145V24.9893H50.926V28.4553C50.9284 28.6186 50.9651 28.7453 51.0361 28.8352C51.1072 28.9252 51.203 28.9702 51.3238 28.9702C51.4871 28.9702 51.6233 28.898 51.7322 28.7536C51.8434 28.6091 51.9263 28.3878 51.9807 28.0895C52.0376 27.7912 52.066 27.4112 52.066 26.9496C52.066 26.5045 52.0068 26.1139 51.8884 25.7777C51.7724 25.4392 51.609 25.1515 51.3983 24.9148C51.19 24.6757 50.9474 24.4815 50.6704 24.3324C50.3934 24.1832 50.0927 24.0743 49.7684 24.0057C49.4464 23.937 49.115 23.9027 48.7741 23.9027C48.1846 23.9027 47.6697 23.9927 47.2293 24.1726C46.789 24.3501 46.422 24.5999 46.1285 24.9219C45.8349 25.2438 45.6147 25.6214 45.468 26.0547C45.3235 26.4856 45.2501 26.9555 45.2478 27.4645C45.2501 28.0256 45.3283 28.5227 45.4822 28.956C45.6384 29.3868 45.868 29.7491 46.1711 30.0426C46.4741 30.3362 46.8482 30.5587 47.2932 30.7102C47.7383 30.8617 48.2497 30.9375 48.8273 30.9375C49.0996 30.9375 49.3659 30.9174 49.6263 30.8771C49.8867 30.8393 50.1223 30.7919 50.333 30.7351C50.5437 30.6806 50.713 30.6274 50.8408 30.5753L51.1924 31.6051C51.0432 31.6903 50.8408 31.7696 50.5851 31.843C50.3318 31.9188 50.0454 31.9792 49.7258 32.0241C49.4085 32.0715 49.0818 32.0952 48.7457 32.0952ZM48.5823 28.8849C48.8711 28.8849 49.1008 28.8293 49.2712 28.718C49.444 28.6068 49.5671 28.4422 49.6405 28.2244C49.7163 28.0043 49.7518 27.7332 49.7471 27.4112C49.7447 27.1271 49.708 26.8868 49.637 26.6903C49.5683 26.4915 49.4488 26.3411 49.2783 26.2393C49.1102 26.1352 48.8759 26.0831 48.5752 26.0831C48.3124 26.0831 48.0887 26.1387 47.904 26.25C47.7217 26.3613 47.5821 26.5175 47.485 26.7188C47.3903 26.9176 47.3418 27.152 47.3394 27.4219C47.3418 27.6728 47.382 27.9107 47.4601 28.1357C47.5383 28.3582 47.6673 28.5393 47.8472 28.679C48.0271 28.8163 48.2722 28.8849 48.5823 28.8849ZM54.2863 30V24.5455H55.7281V25.5078H55.792C55.9056 25.1882 56.095 24.9361 56.3602 24.7514C56.6253 24.5668 56.9426 24.4744 57.3119 24.4744C57.6859 24.4744 58.0044 24.5679 58.2671 24.755C58.5299 24.9396 58.7051 25.1906 58.7927 25.5078H58.8495C58.9608 25.1953 59.162 24.9455 59.4532 24.7585C59.7468 24.5691 60.0936 24.4744 60.4937 24.4744C61.0027 24.4744 61.4158 24.6366 61.733 24.9609C62.0526 25.2829 62.2124 25.7398 62.2124 26.3317V30H60.7032V26.63C60.7032 26.3269 60.6227 26.0997 60.4617 25.9482C60.3008 25.7966 60.0995 25.7209 59.858 25.7209C59.5834 25.7209 59.3692 25.8085 59.2153 25.9837C59.0614 26.1565 58.9845 26.3849 58.9845 26.669V30H57.5178V26.598C57.5178 26.3305 57.4409 26.1174 57.287 25.9588C57.1355 25.8002 56.9355 25.7209 56.6869 25.7209C56.5188 25.7209 56.3673 25.7635 56.2323 25.8487C56.0998 25.9316 55.9944 26.0488 55.9163 26.2003C55.8382 26.3494 55.7991 26.5246 55.7991 26.7259V30H54.2863ZM64.9628 30.103C64.6148 30.103 64.3047 30.0426 64.0324 29.9219C63.7602 29.7988 63.5447 29.6177 63.3861 29.3786C63.2298 29.1371 63.1517 28.8364 63.1517 28.4766C63.1517 28.1735 63.2074 27.919 63.3186 27.7131C63.4299 27.5071 63.5814 27.3414 63.7732 27.2159C63.9649 27.0904 64.1827 26.9957 64.4266 26.9318C64.6728 26.8679 64.9308 26.8229 65.2007 26.7969C65.518 26.7637 65.7736 26.733 65.9678 26.7045C66.1619 26.6738 66.3028 26.6288 66.3904 26.5696C66.478 26.5104 66.5218 26.4228 66.5218 26.3068V26.2855C66.5218 26.0606 66.4507 25.8866 66.3087 25.7635C66.169 25.6404 65.9701 25.5788 65.7121 25.5788C65.4398 25.5788 65.2232 25.6392 65.0622 25.7599C64.9012 25.8783 64.7947 26.0275 64.7426 26.2074L63.3435 26.0938C63.4145 25.7623 63.5542 25.4759 63.7625 25.2344C63.9709 24.9905 64.2396 24.8035 64.5686 24.6733C64.9001 24.5407 65.2836 24.4744 65.7192 24.4744C66.0222 24.4744 66.3122 24.5099 66.5892 24.581C66.8686 24.652 67.116 24.7621 67.3314 24.9112C67.5492 25.0604 67.7209 25.2521 67.8463 25.4865C67.9718 25.7185 68.0345 25.9967 68.0345 26.321V30H66.5999V29.2436H66.5573C66.4697 29.4141 66.3525 29.5644 66.2057 29.6946C66.0589 29.8224 65.8825 29.9231 65.6766 29.9964C65.4706 30.0675 65.2327 30.103 64.9628 30.103ZM65.396 29.0589C65.6186 29.0589 65.8151 29.0152 65.9855 28.9276C66.156 28.8376 66.2897 28.7169 66.3868 28.5653C66.4839 28.4138 66.5324 28.2422 66.5324 28.0504V27.4716C66.4851 27.5024 66.42 27.5308 66.3371 27.5568C66.2566 27.5805 66.1655 27.603 66.0637 27.6243C65.9619 27.6432 65.8601 27.661 65.7583 27.6776C65.6565 27.6918 65.5641 27.7048 65.4813 27.7166C65.3037 27.7427 65.1486 27.7841 65.0161 27.8409C64.8835 27.8977 64.7805 27.9747 64.7071 28.0717C64.6337 28.1664 64.597 28.2848 64.597 28.4268C64.597 28.6328 64.6716 28.7902 64.8208 28.8991C64.9723 29.0057 65.164 29.0589 65.396 29.0589ZM69.2082 30V24.5455H70.6748V25.4972H70.7316C70.8311 25.1586 70.998 24.9029 71.2323 24.7301C71.4667 24.5549 71.7366 24.4673 72.042 24.4673C72.1177 24.4673 72.1994 24.4721 72.287 24.4815C72.3746 24.491 72.4516 24.504 72.5178 24.5206V25.8629C72.4468 25.8416 72.3486 25.8227 72.2231 25.8061C72.0976 25.7895 71.9828 25.7812 71.8786 25.7812C71.6561 25.7812 71.4572 25.8298 71.282 25.9268C71.1092 26.0215 70.9719 26.1541 70.8701 26.3246C70.7707 26.495 70.721 26.6915 70.721 26.9141V30H69.2082ZM73.3 30V24.5455H74.8128V30H73.3ZM74.0599 23.8423C73.835 23.8423 73.6421 23.7678 73.4811 23.6186C73.3225 23.4671 73.2432 23.286 73.2432 23.0753C73.2432 22.867 73.3225 22.6882 73.4811 22.5391C73.6421 22.3875 73.835 22.3118 74.0599 22.3118C74.2848 22.3118 74.4766 22.3875 74.6352 22.5391C74.7962 22.6882 74.8767 22.867 74.8767 23.0753C74.8767 23.286 74.7962 23.4671 74.6352 23.6186C74.4766 23.7678 74.2848 23.8423 74.0599 23.8423ZM77.58 30.103C77.232 30.103 76.9218 30.0426 76.6496 29.9219C76.3773 29.7988 76.1619 29.6177 76.0033 29.3786C75.847 29.1371 75.7689 28.8364 75.7689 28.4766C75.7689 28.1735 75.8245 27.919 75.9358 27.7131C76.0471 27.5071 76.1986 27.3414 76.3904 27.2159C76.5821 27.0904 76.7999 26.9957 77.0438 26.9318C77.29 26.8679 77.548 26.8229 77.8179 26.7969C78.1352 26.7637 78.3908 26.733 78.585 26.7045C78.7791 26.6738 78.92 26.6288 79.0075 26.5696C79.0951 26.5104 79.1389 26.4228 79.1389 26.3068V26.2855C79.1389 26.0606 79.0679 25.8866 78.9259 25.7635C78.7862 25.6404 78.5873 25.5788 78.3293 25.5788C78.057 25.5788 77.8404 25.6392 77.6794 25.7599C77.5184 25.8783 77.4119 26.0275 77.3598 26.2074L75.9607 26.0938C76.0317 25.7623 76.1714 25.4759 76.3797 25.2344C76.588 24.9905 76.8567 24.8035 77.1858 24.6733C77.5173 24.5407 77.9008 24.4744 78.3364 24.4744C78.6394 24.4744 78.9294 24.5099 79.2064 24.581C79.4858 24.652 79.7332 24.7621 79.9486 24.9112C80.1664 25.0604 80.338 25.2521 80.4635 25.4865C80.589 25.7185 80.6517 25.9967 80.6517 26.321V30H79.2171V29.2436H79.1744C79.0869 29.4141 78.9697 29.5644 78.8229 29.6946C78.6761 29.8224 78.4997 29.9231 78.2938 29.9964C78.0878 30.0675 77.8499 30.103 77.58 30.103ZM78.0132 29.0589C78.2358 29.0589 78.4323 29.0152 78.6027 28.9276C78.7732 28.8376 78.9069 28.7169 79.004 28.5653C79.1011 28.4138 79.1496 28.2422 79.1496 28.0504V27.4716C79.1022 27.5024 79.0371 27.5308 78.9543 27.5568C78.8738 27.5805 78.7826 27.603 78.6808 27.6243C78.579 27.6432 78.4772 27.661 78.3754 27.6776C78.2736 27.6918 78.1813 27.7048 78.0985 27.7166C77.9209 27.7427 77.7658 27.7841 77.6333 27.8409C77.5007 27.8977 77.3977 27.9747 77.3243 28.0717C77.2509 28.1664 77.2142 28.2848 77.2142 28.4268C77.2142 28.6328 77.2888 28.7902 77.4379 28.8991C77.5895 29.0057 77.7812 29.0589 78.0132 29.0589ZM83.3382 26.8466V30H81.8254V24.5455H83.2671V25.5078H83.3311C83.4518 25.1906 83.6542 24.9396 83.9383 24.755C84.2224 24.5679 84.5669 24.4744 84.9717 24.4744C85.3505 24.4744 85.6807 24.5573 85.9624 24.723C86.2442 24.8887 86.4632 25.1255 86.6194 25.4332C86.7757 25.7386 86.8538 26.1032 86.8538 26.527V30H85.341V26.7969C85.3434 26.4631 85.2581 26.2027 85.0853 26.0156C84.9125 25.8262 84.6746 25.7315 84.3715 25.7315C84.1679 25.7315 83.988 25.7753 83.8318 25.8629C83.6779 25.9505 83.5571 26.0784 83.4695 26.2464C83.3843 26.4122 83.3405 26.6122 83.3382 26.8466ZM89.6015 30.103C89.2535 30.103 88.9433 30.0426 88.6711 29.9219C88.3988 29.7988 88.1834 29.6177 88.0248 29.3786C87.8685 29.1371 87.7904 28.8364 87.7904 28.4766C87.7904 28.1735 87.846 27.919 87.9573 27.7131C88.0686 27.5071 88.2201 27.3414 88.4118 27.2159C88.6036 27.0904 88.8214 26.9957 89.0653 26.9318C89.3115 26.8679 89.5695 26.8229 89.8394 26.7969C90.1566 26.7637 90.4123 26.733 90.6064 26.7045C90.8006 26.6738 90.9414 26.6288 91.029 26.5696C91.1166 26.5104 91.1604 26.4228 91.1604 26.3068V26.2855C91.1604 26.0606 91.0894 25.8866 90.9474 25.7635C90.8077 25.6404 90.6088 25.5788 90.3508 25.5788C90.0785 25.5788 89.8619 25.6392 89.7009 25.7599C89.5399 25.8783 89.4334 26.0275 89.3813 26.2074L87.9822 26.0938C88.0532 25.7623 88.1929 25.4759 88.4012 25.2344C88.6095 24.9905 88.8782 24.8035 89.2073 24.6733C89.5387 24.5407 89.9223 24.4744 90.3579 24.4744C90.6609 24.4744 90.9509 24.5099 91.2279 24.581C91.5073 24.652 91.7546 24.7621 91.9701 24.9112C92.1879 25.0604 92.3595 25.2521 92.485 25.4865C92.6105 25.7185 92.6732 25.9967 92.6732 26.321V30H91.2385V29.2436H91.1959C91.1083 29.4141 90.9912 29.5644 90.8444 29.6946C90.6976 29.8224 90.5212 29.9231 90.3153 29.9964C90.1093 30.0675 89.8714 30.103 89.6015 30.103ZM90.0347 29.0589C90.2573 29.0589 90.4537 29.0152 90.6242 28.9276C90.7947 28.8376 90.9284 28.7169 91.0255 28.5653C91.1225 28.4138 91.1711 28.2422 91.1711 28.0504V27.4716C91.1237 27.5024 91.0586 27.5308 90.9758 27.5568C90.8953 27.5805 90.8041 27.603 90.7023 27.6243C90.6005 27.6432 90.4987 27.661 90.3969 27.6776C90.2951 27.6918 90.2028 27.7048 90.1199 27.7166C89.9424 27.7427 89.7873 27.7841 89.6547 27.8409C89.5222 27.8977 89.4192 27.9747 89.3458 28.0717C89.2724 28.1664 89.2357 28.2848 89.2357 28.4268C89.2357 28.6328 89.3103 28.7902 89.4594 28.8991C89.6109 29.0057 89.8027 29.0589 90.0347 29.0589ZM95.1111 24.5455L96.1125 26.4524L97.1388 24.5455H98.6906L97.1104 27.2727L98.7332 30H97.1885L96.1125 28.1143L95.0542 30H93.4917L95.1111 27.2727L93.5486 24.5455H95.1111ZM99.589 30V24.5455H101.102V30H99.589ZM100.349 23.8423C100.124 23.8423 99.9311 23.7678 99.7702 23.6186C99.6115 23.4671 99.5322 23.286 99.5322 23.0753C99.5322 22.867 99.6115 22.6882 99.7702 22.5391C99.9311 22.3875 100.124 22.3118 100.349 22.3118C100.574 22.3118 100.766 22.3875 100.924 22.5391C101.085 22.6882 101.166 22.867 101.166 23.0753C101.166 23.286 101.085 23.4671 100.924 23.6186C100.766 23.7678 100.574 23.8423 100.349 23.8423ZM102.314 30V24.5455H103.755V25.5078H103.819C103.933 25.1882 104.122 24.9361 104.388 24.7514C104.653 24.5668 104.97 24.4744 105.339 24.4744C105.713 24.4744 106.032 24.5679 106.294 24.755C106.557 24.9396 106.732 25.1906 106.82 25.5078H106.877C106.988 25.1953 107.189 24.9455 107.481 24.7585C107.774 24.5691 108.121 24.4744 108.521 24.4744C109.03 24.4744 109.443 24.6366 109.76 24.9609C110.08 25.2829 110.24 25.7398 110.24 26.3317V30H108.731V26.63C108.731 26.3269 108.65 26.0997 108.489 25.9482C108.328 25.7966 108.127 25.7209 107.885 25.7209C107.611 25.7209 107.397 25.8085 107.243 25.9837C107.089 26.1565 107.012 26.3849 107.012 26.669V30H105.545V26.598C105.545 26.3305 105.468 26.1174 105.314 25.9588C105.163 25.8002 104.963 25.7209 104.714 25.7209C104.546 25.7209 104.395 25.7635 104.26 25.8487C104.127 25.9316 104.022 26.0488 103.944 26.2003C103.866 26.3494 103.826 26.5246 103.826 26.7259V30H102.314ZM113.921 30.1065C113.359 30.1065 112.877 29.9929 112.472 29.7656C112.069 29.536 111.759 29.2116 111.541 28.7926C111.323 28.3712 111.215 27.8729 111.215 27.2976C111.215 26.7365 111.323 26.2441 111.541 25.8203C111.759 25.3965 112.066 25.0663 112.461 24.8295C112.859 24.5928 113.325 24.4744 113.86 24.4744C114.22 24.4744 114.555 24.5324 114.865 24.6484C115.178 24.7621 115.45 24.9337 115.682 25.1634C115.916 25.393 116.099 25.6818 116.229 26.0298C116.359 26.3755 116.424 26.7803 116.424 27.2443V27.6598H111.818V26.7223H115C115 26.5045 114.953 26.3116 114.858 26.1435C114.763 25.9754 114.632 25.844 114.464 25.7493C114.298 25.6522 114.105 25.6037 113.885 25.6037C113.655 25.6037 113.452 25.657 113.274 25.7635C113.099 25.8677 112.962 26.0085 112.862 26.1861C112.763 26.3613 112.712 26.5566 112.71 26.772V27.6634C112.71 27.9332 112.759 28.1664 112.859 28.3629C112.961 28.5594 113.104 28.7109 113.288 28.8175C113.473 28.924 113.692 28.9773 113.945 28.9773C114.113 28.9773 114.267 28.9536 114.407 28.9062C114.547 28.8589 114.666 28.7879 114.766 28.6932C114.865 28.5985 114.941 28.4825 114.993 28.3452L116.392 28.4375C116.321 28.7737 116.176 29.0672 115.955 29.3182C115.738 29.5668 115.456 29.7609 115.11 29.9006C114.767 30.0379 114.37 30.1065 113.921 30.1065ZM118.924 26.8466V30H117.411V24.5455H118.853V25.5078H118.917C119.038 25.1906 119.24 24.9396 119.524 24.755C119.808 24.5679 120.153 24.4744 120.558 24.4744C120.936 24.4744 121.267 24.5573 121.548 24.723C121.83 24.8887 122.049 25.1255 122.205 25.4332C122.362 25.7386 122.44 26.1032 122.44 26.527V30H120.927V26.7969C120.929 26.4631 120.844 26.2027 120.671 26.0156C120.498 25.8262 120.261 25.7315 119.957 25.7315C119.754 25.7315 119.574 25.7753 119.418 25.8629C119.264 25.9505 119.143 26.0784 119.055 26.2464C118.97 26.4122 118.926 26.6122 118.924 26.8466ZM126.118 30.1065C125.557 30.1065 125.074 29.9929 124.669 29.7656C124.266 29.536 123.956 29.2116 123.739 28.7926C123.521 28.3712 123.412 27.8729 123.412 27.2976C123.412 26.7365 123.521 26.2441 123.739 25.8203C123.956 25.3965 124.263 25.0663 124.658 24.8295C125.056 24.5928 125.522 24.4744 126.057 24.4744C126.417 24.4744 126.752 24.5324 127.062 24.6484C127.375 24.7621 127.647 24.9337 127.879 25.1634C128.114 25.393 128.296 25.6818 128.426 26.0298C128.556 26.3755 128.621 26.7803 128.621 27.2443V27.6598H124.016V26.7223H127.197C127.197 26.5045 127.15 26.3116 127.055 26.1435C126.961 25.9754 126.829 25.844 126.661 25.7493C126.495 25.6522 126.302 25.6037 126.082 25.6037C125.853 25.6037 125.649 25.657 125.472 25.7635C125.296 25.8677 125.159 26.0085 125.06 26.1861C124.96 26.3613 124.909 26.5566 124.907 26.772V27.6634C124.907 27.9332 124.957 28.1664 125.056 28.3629C125.158 28.5594 125.301 28.7109 125.486 28.8175C125.67 28.924 125.889 28.9773 126.143 28.9773C126.311 28.9773 126.465 28.9536 126.604 28.9062C126.744 28.8589 126.864 28.7879 126.963 28.6932C127.062 28.5985 127.138 28.4825 127.19 28.3452L128.589 28.4375C128.518 28.7737 128.373 29.0672 128.153 29.3182C127.935 29.5668 127.653 29.7609 127.307 29.9006C126.964 30.0379 126.568 30.1065 126.118 30.1065ZM134.147 26.1009L132.762 26.1861C132.738 26.0677 132.687 25.9612 132.609 25.8665C132.531 25.7694 132.428 25.6925 132.3 25.6357C132.175 25.5765 132.025 25.5469 131.849 25.5469C131.615 25.5469 131.417 25.5966 131.256 25.696C131.095 25.7931 131.015 25.9233 131.015 26.0866C131.015 26.2169 131.067 26.3269 131.171 26.4169C131.275 26.5069 131.454 26.5791 131.707 26.6335L132.695 26.8324C133.225 26.9413 133.62 27.1165 133.881 27.358C134.141 27.5994 134.271 27.9167 134.271 28.3097C134.271 28.6671 134.166 28.9808 133.955 29.2507C133.747 29.5206 133.46 29.7313 133.096 29.8828C132.734 30.032 132.316 30.1065 131.842 30.1065C131.12 30.1065 130.545 29.9562 130.116 29.6555C129.69 29.3525 129.44 28.9406 129.367 28.4197L130.855 28.3416C130.9 28.5618 131.009 28.7299 131.182 28.8459C131.355 28.9595 131.576 29.0163 131.846 29.0163C132.111 29.0163 132.324 28.9654 132.485 28.8636C132.648 28.7595 132.731 28.6257 132.734 28.4624C132.731 28.325 132.673 28.2126 132.56 28.125C132.446 28.035 132.271 27.9664 132.034 27.919L131.089 27.7308C130.557 27.6243 130.16 27.4396 129.9 27.1768C129.642 26.9141 129.513 26.5791 129.513 26.1719C129.513 25.8215 129.607 25.5196 129.797 25.2663C129.989 25.013 130.257 24.8177 130.603 24.6804C130.951 24.5431 131.358 24.4744 131.824 24.4744C132.513 24.4744 133.056 24.62 133.451 24.9112C133.849 25.2024 134.081 25.599 134.147 26.1009Z" fill="white"/>
</g>
<rect y="51" width="265" height="50" fill="url(#paint1_linear_36_7526)" fill-opacity="0.45"/>
<g filter="url(#filter1_d_36_7526)">
<path d="M48.6662 81V75.5455H50.108V76.5078H50.1719C50.2855 76.1882 50.4749 75.9361 50.7401 75.7514C51.0052 75.5668 51.3224 75.4744 51.6918 75.4744C52.0658 75.4744 52.3842 75.5679 52.647 75.755C52.9098 75.9396 53.085 76.1906 53.1726 76.5078H53.2294C53.3407 76.1953 53.5419 75.9455 53.8331 75.7585C54.1267 75.5691 54.4735 75.4744 54.8736 75.4744C55.3826 75.4744 55.7957 75.6366 56.1129 75.9609C56.4325 76.2829 56.5923 76.7398 56.5923 77.3317V81H55.0831V77.63C55.0831 77.3269 55.0026 77.0997 54.8416 76.9482C54.6806 76.7966 54.4794 76.7209 54.2379 76.7209C53.9633 76.7209 53.7491 76.8085 53.5952 76.9837C53.4413 77.1565 53.3643 77.3849 53.3643 77.669V81H51.8977V77.598C51.8977 77.3305 51.8208 77.1174 51.6669 76.9588C51.5154 76.8002 51.3153 76.7209 51.0668 76.7209C50.8987 76.7209 50.7472 76.7635 50.6122 76.8487C50.4796 76.9316 50.3743 77.0488 50.2962 77.2003C50.218 77.3494 50.179 77.5246 50.179 77.7259V81H48.6662ZM59.3427 81.103C58.9947 81.103 58.6845 81.0426 58.4123 80.9219C58.14 80.7988 57.9246 80.6177 57.766 80.3786C57.6097 80.1371 57.5316 79.8364 57.5316 79.4766C57.5316 79.1735 57.5872 78.919 57.6985 78.7131C57.8098 78.5071 57.9613 78.3414 58.1531 78.2159C58.3448 78.0904 58.5626 77.9957 58.8065 77.9318C59.0527 77.8679 59.3107 77.8229 59.5806 77.7969C59.8978 77.7637 60.1535 77.733 60.3477 77.7045C60.5418 77.6738 60.6826 77.6288 60.7702 77.5696C60.8578 77.5104 60.9016 77.4228 60.9016 77.3068V77.2855C60.9016 77.0606 60.8306 76.8866 60.6886 76.7635C60.5489 76.6404 60.35 76.5788 60.092 76.5788C59.8197 76.5788 59.6031 76.6392 59.4421 76.7599C59.2811 76.8783 59.1746 77.0275 59.1225 77.2074L57.7234 77.0938C57.7944 76.7623 57.9341 76.4759 58.1424 76.2344C58.3507 75.9905 58.6194 75.8035 58.9485 75.6733C59.2799 75.5407 59.6635 75.4744 60.0991 75.4744C60.4021 75.4744 60.6921 75.5099 60.9691 75.581C61.2485 75.652 61.4959 75.7621 61.7113 75.9112C61.9291 76.0604 62.1007 76.2521 62.2262 76.4865C62.3517 76.7185 62.4144 76.9967 62.4144 77.321V81H60.9798V80.2436H60.9371C60.8496 80.4141 60.7324 80.5644 60.5856 80.6946C60.4388 80.8224 60.2624 80.9231 60.0565 80.9964C59.8505 81.0675 59.6126 81.103 59.3427 81.103ZM59.7759 80.0589C59.9985 80.0589 60.195 80.0152 60.3654 79.9276C60.5359 79.8376 60.6696 79.7169 60.7667 79.5653C60.8638 79.4138 60.9123 79.2422 60.9123 79.0504V78.4716C60.8649 78.5024 60.7998 78.5308 60.717 78.5568C60.6365 78.5805 60.5453 78.603 60.4435 78.6243C60.3417 78.6432 60.2399 78.661 60.1381 78.6776C60.0363 78.6918 59.944 78.7048 59.8612 78.7166C59.6836 78.7427 59.5285 78.7841 59.396 78.8409C59.2634 78.8977 59.1604 78.9747 59.087 79.0717C59.0136 79.1664 58.9769 79.2848 58.9769 79.4268C58.9769 79.6328 59.0515 79.7902 59.2006 79.8991C59.3522 80.0057 59.5439 80.0589 59.7759 80.0589ZM63.5881 81V75.5455H65.0547V76.4972H65.1115C65.2109 76.1586 65.3778 75.9029 65.6122 75.7301C65.8466 75.5549 66.1165 75.4673 66.4219 75.4673C66.4976 75.4673 66.5793 75.4721 66.6669 75.4815C66.7545 75.491 66.8314 75.504 66.8977 75.5206V76.8629C66.8267 76.8416 66.7285 76.8227 66.603 76.8061C66.4775 76.7895 66.3627 76.7812 66.2585 76.7812C66.036 76.7812 65.8371 76.8298 65.6619 76.9268C65.4891 77.0215 65.3518 77.1541 65.25 77.3246C65.1506 77.495 65.1009 77.6915 65.1009 77.9141V81H63.5881ZM69.079 81.103C68.731 81.103 68.4209 81.0426 68.1486 80.9219C67.8764 80.7988 67.6609 80.6177 67.5023 80.3786C67.3461 80.1371 67.2679 79.8364 67.2679 79.4766C67.2679 79.1735 67.3236 78.919 67.4348 78.7131C67.5461 78.5071 67.6976 78.3414 67.8894 78.2159C68.0811 78.0904 68.2989 77.9957 68.5428 77.9318C68.789 77.8679 69.0471 77.8229 69.3169 77.7969C69.6342 77.7637 69.8899 77.733 70.084 77.7045C70.2781 77.6738 70.419 77.6288 70.5066 77.5696C70.5942 77.5104 70.638 77.4228 70.638 77.3068V77.2855C70.638 77.0606 70.5669 76.8866 70.4249 76.7635C70.2852 76.6404 70.0864 76.5788 69.8283 76.5788C69.556 76.5788 69.3394 76.6392 69.1784 76.7599C69.0175 76.8783 68.9109 77.0275 68.8588 77.2074L67.4597 77.0938C67.5307 76.7623 67.6704 76.4759 67.8787 76.2344C68.0871 75.9905 68.3558 75.8035 68.6848 75.6733C69.0163 75.5407 69.3998 75.4744 69.8354 75.4744C70.1384 75.4744 70.4284 75.5099 70.7054 75.581C70.9848 75.652 71.2322 75.7621 71.4476 75.9112C71.6654 76.0604 71.8371 76.2521 71.9625 76.4865C72.088 76.7185 72.1507 76.9967 72.1507 77.321V81H70.7161V80.2436H70.6735C70.5859 80.4141 70.4687 80.5644 70.3219 80.6946C70.1751 80.8224 69.9988 80.9231 69.7928 80.9964C69.5868 81.0675 69.3489 81.103 69.079 81.103ZM69.5123 80.0589C69.7348 80.0589 69.9313 80.0152 70.1017 79.9276C70.2722 79.8376 70.406 79.7169 70.503 79.5653C70.6001 79.4138 70.6486 79.2422 70.6486 79.0504V78.4716C70.6013 78.5024 70.5362 78.5308 70.4533 78.5568C70.3728 78.5805 70.2817 78.603 70.1799 78.6243C70.0781 78.6432 69.9763 78.661 69.8745 78.6776C69.7727 78.6918 69.6803 78.7048 69.5975 78.7166C69.4199 78.7427 69.2649 78.7841 69.1323 78.8409C68.9997 78.8977 68.8967 78.9747 68.8233 79.0717C68.7499 79.1664 68.7132 79.2848 68.7132 79.4268C68.7132 79.6328 68.7878 79.7902 68.937 79.8991C69.0885 80.0057 69.2802 80.0589 69.5123 80.0589ZM73.3244 81V75.5455H74.8372V81H73.3244ZM74.0843 74.8423C73.8594 74.8423 73.6665 74.7678 73.5055 74.6186C73.3469 74.4671 73.2676 74.286 73.2676 74.0753C73.2676 73.867 73.3469 73.6882 73.5055 73.5391C73.6665 73.3875 73.8594 73.3118 74.0843 73.3118C74.3092 73.3118 74.501 73.3875 74.6596 73.5391C74.8206 73.6882 74.9011 73.867 74.9011 74.0753C74.9011 74.286 74.8206 74.4671 74.6596 74.6186C74.501 74.7678 74.3092 74.8423 74.0843 74.8423ZM77.5618 77.8466V81H76.049V75.5455H77.4908V76.5078H77.5547C77.6754 76.1906 77.8778 75.9396 78.1619 75.755C78.446 75.5679 78.7905 75.4744 79.1953 75.4744C79.5741 75.4744 79.9044 75.5573 80.1861 75.723C80.4678 75.8887 80.6868 76.1255 80.843 76.4332C80.9993 76.7386 81.0774 77.1032 81.0774 77.527V81H79.5646V77.7969C79.567 77.4631 79.4818 77.2027 79.3089 77.0156C79.1361 76.8262 78.8982 76.7315 78.5952 76.7315C78.3916 76.7315 78.2116 76.7753 78.0554 76.8629C77.9015 76.9505 77.7808 77.0784 77.6932 77.2464C77.608 77.4122 77.5642 77.6122 77.5618 77.8466ZM83.8251 81.103C83.4771 81.103 83.167 81.0426 82.8947 80.9219C82.6225 80.7988 82.407 80.6177 82.2484 80.3786C82.0922 80.1371 82.014 79.8364 82.014 79.4766C82.014 79.1735 82.0697 78.919 82.1809 78.7131C82.2922 78.5071 82.4437 78.3414 82.6355 78.2159C82.8272 78.0904 83.045 77.9957 83.2889 77.9318C83.5351 77.8679 83.7931 77.8229 84.063 77.7969C84.3803 77.7637 84.6359 77.733 84.8301 77.7045C85.0242 77.6738 85.1651 77.6288 85.2527 77.5696C85.3403 77.5104 85.3841 77.4228 85.3841 77.3068V77.2855C85.3841 77.0606 85.313 76.8866 85.171 76.7635C85.0313 76.6404 84.8324 76.5788 84.5744 76.5788C84.3021 76.5788 84.0855 76.6392 83.9245 76.7599C83.7636 76.8783 83.657 77.0275 83.6049 77.2074L82.2058 77.0938C82.2768 76.7623 82.4165 76.4759 82.6248 76.2344C82.8332 75.9905 83.1019 75.8035 83.4309 75.6733C83.7624 75.5407 84.1459 75.4744 84.5815 75.4744C84.8845 75.4744 85.1745 75.5099 85.4515 75.581C85.7309 75.652 85.9783 75.7621 86.1937 75.9112C86.4115 76.0604 86.5832 76.2521 86.7086 76.4865C86.8341 76.7185 86.8968 76.9967 86.8968 77.321V81H85.4622V80.2436H85.4196C85.332 80.4141 85.2148 80.5644 85.068 80.6946C84.9212 80.8224 84.7449 80.9231 84.5389 80.9964C84.3329 81.0675 84.095 81.103 83.8251 81.103ZM84.2583 80.0589C84.4809 80.0589 84.6774 80.0152 84.8478 79.9276C85.0183 79.8376 85.152 79.7169 85.2491 79.5653C85.3462 79.4138 85.3947 79.2422 85.3947 79.0504V78.4716C85.3474 78.5024 85.2823 78.5308 85.1994 78.5568C85.1189 78.5805 85.0278 78.603 84.926 78.6243C84.8242 78.6432 84.7224 78.661 84.6206 78.6776C84.5188 78.6918 84.4264 78.7048 84.3436 78.7166C84.166 78.7427 84.0109 78.7841 83.8784 78.8409C83.7458 78.8977 83.6428 78.9747 83.5694 79.0717C83.496 79.1664 83.4593 79.2848 83.4593 79.4268C83.4593 79.6328 83.5339 79.7902 83.6831 79.8991C83.8346 80.0057 84.0263 80.0589 84.2583 80.0589ZM92.9604 75.5455L91.0534 81H89.3489L87.4419 75.5455H89.04L90.1728 79.4482H90.2296L91.3588 75.5455H92.9604ZM93.7346 81V75.5455H95.2473V81H93.7346ZM94.4945 74.8423C94.2696 74.8423 94.0766 74.7678 93.9157 74.6186C93.757 74.4671 93.6777 74.286 93.6777 74.0753C93.6777 73.867 93.757 73.6882 93.9157 73.5391C94.0766 73.3875 94.2696 73.3118 94.4945 73.3118C94.7194 73.3118 94.9112 73.3875 95.0698 73.5391C95.2308 73.6882 95.3113 73.867 95.3113 74.0753C95.3113 74.286 95.2308 74.4671 95.0698 74.6186C94.9112 74.7678 94.7194 74.8423 94.4945 74.8423ZM98.4691 81.0888C98.0548 81.0888 97.6796 80.9822 97.3434 80.7692C97.0096 80.5537 96.7444 80.2377 96.5479 79.821C96.3538 79.402 96.2567 78.8883 96.2567 78.2798C96.2567 77.6548 96.3574 77.1352 96.5586 76.7209C96.7598 76.3042 97.0273 75.9929 97.3612 75.7869C97.6973 75.5786 98.0655 75.4744 98.4656 75.4744C98.771 75.4744 99.0254 75.5265 99.229 75.6307C99.435 75.7325 99.6007 75.8603 99.7262 76.0142C99.854 76.1657 99.9511 76.3149 100.017 76.4616H100.064V73.7273H101.573V81H100.081V80.1264H100.017C99.9464 80.2779 99.8458 80.4283 99.7156 80.5774C99.5877 80.7242 99.4208 80.8461 99.2148 80.9432C99.0112 81.0402 98.7627 81.0888 98.4691 81.0888ZM98.9485 79.8849C99.1924 79.8849 99.3983 79.8187 99.5664 79.6861C99.7369 79.5511 99.8671 79.3629 99.957 79.1214C100.049 78.88 100.096 78.5971 100.096 78.2727C100.096 77.9484 100.051 77.6667 99.9606 77.4276C99.8706 77.1884 99.7404 77.0038 99.57 76.8736C99.3995 76.7434 99.1924 76.6783 98.9485 76.6783C98.6999 76.6783 98.4904 76.7457 98.32 76.8807C98.1495 77.0156 98.0205 77.2027 97.9329 77.4418C97.8453 77.6809 97.8015 77.9579 97.8015 78.2727C97.8015 78.59 97.8453 78.8705 97.9329 79.1143C98.0228 79.3558 98.1519 79.5452 98.32 79.6825C98.4904 79.8175 98.6999 79.8849 98.9485 79.8849ZM105.302 81.1065C104.741 81.1065 104.258 80.9929 103.854 80.7656C103.451 80.536 103.141 80.2116 102.923 79.7926C102.705 79.3712 102.596 78.8729 102.596 78.2976C102.596 77.7365 102.705 77.2441 102.923 76.8203C103.141 76.3965 103.448 76.0663 103.843 75.8295C104.241 75.5928 104.707 75.4744 105.242 75.4744C105.602 75.4744 105.937 75.5324 106.247 75.6484C106.559 75.7621 106.832 75.9337 107.064 76.1634C107.298 76.393 107.48 76.6818 107.611 77.0298C107.741 77.3755 107.806 77.7803 107.806 78.2443V78.6598H103.2V77.7223H106.382C106.382 77.5045 106.335 77.3116 106.24 77.1435C106.145 76.9754 106.014 76.844 105.846 76.7493C105.68 76.6522 105.487 76.6037 105.267 76.6037C105.037 76.6037 104.834 76.657 104.656 76.7635C104.481 76.8677 104.344 77.0085 104.244 77.1861C104.145 77.3613 104.094 77.5566 104.091 77.772V78.6634C104.091 78.9332 104.141 79.1664 104.241 79.3629C104.342 79.5594 104.486 79.7109 104.67 79.8175C104.855 79.924 105.074 79.9773 105.327 79.9773C105.495 79.9773 105.649 79.9536 105.789 79.9062C105.929 79.8589 106.048 79.7879 106.148 79.6932C106.247 79.5985 106.323 79.4825 106.375 79.3452L107.774 79.4375C107.703 79.7737 107.557 80.0672 107.337 80.3182C107.119 80.5668 106.838 80.7609 106.492 80.9006C106.149 81.0379 105.752 81.1065 105.302 81.1065ZM111.258 81.1065C110.706 81.1065 110.229 80.9893 109.827 80.755C109.426 80.5182 109.117 80.1892 108.9 79.7678C108.682 79.344 108.573 78.8527 108.573 78.294C108.573 77.7306 108.682 77.2382 108.9 76.8168C109.117 76.393 109.426 76.0639 109.827 75.8295C110.229 75.5928 110.706 75.4744 111.258 75.4744C111.809 75.4744 112.285 75.5928 112.685 75.8295C113.088 76.0639 113.398 76.393 113.616 76.8168C113.833 77.2382 113.942 77.7306 113.942 78.294C113.942 78.8527 113.833 79.344 113.616 79.7678C113.398 80.1892 113.088 80.5182 112.685 80.755C112.285 80.9893 111.809 81.1065 111.258 81.1065ZM111.265 79.9347C111.516 79.9347 111.725 79.8636 111.893 79.7216C112.061 79.5772 112.188 79.3807 112.273 79.1321C112.361 78.8835 112.405 78.6006 112.405 78.2834C112.405 77.9661 112.361 77.6832 112.273 77.4347C112.188 77.1861 112.061 76.9896 111.893 76.8452C111.725 76.7008 111.516 76.6286 111.265 76.6286C111.011 76.6286 110.798 76.7008 110.626 76.8452C110.455 76.9896 110.326 77.1861 110.238 77.4347C110.153 77.6832 110.111 77.9661 110.111 78.2834C110.111 78.6006 110.153 78.8835 110.238 79.1321C110.326 79.3807 110.455 79.5772 110.626 79.7216C110.798 79.8636 111.011 79.9347 111.265 79.9347ZM119.464 77.1009L118.079 77.1861C118.056 77.0677 118.005 76.9612 117.927 76.8665C117.849 76.7694 117.746 76.6925 117.618 76.6357C117.492 76.5765 117.342 76.5469 117.167 76.5469C116.932 76.5469 116.735 76.5966 116.574 76.696C116.413 76.7931 116.332 76.9233 116.332 77.0866C116.332 77.2169 116.384 77.3269 116.488 77.4169C116.593 77.5069 116.771 77.5791 117.025 77.6335L118.012 77.8324C118.542 77.9413 118.938 78.1165 119.198 78.358C119.458 78.5994 119.589 78.9167 119.589 79.3097C119.589 79.6671 119.483 79.9808 119.273 80.2507C119.064 80.5206 118.778 80.7313 118.413 80.8828C118.051 81.032 117.633 81.1065 117.16 81.1065C116.438 81.1065 115.862 80.9562 115.434 80.6555C115.008 80.3525 114.758 79.9406 114.684 79.4197L116.172 79.3416C116.217 79.5618 116.326 79.7299 116.499 79.8459C116.672 79.9595 116.893 80.0163 117.163 80.0163C117.428 80.0163 117.641 79.9654 117.802 79.8636C117.966 79.7595 118.049 79.6257 118.051 79.4624C118.049 79.325 117.991 79.2126 117.877 79.125C117.763 79.035 117.588 78.9664 117.351 78.919L116.407 78.7308C115.874 78.6243 115.478 78.4396 115.217 78.1768C114.959 77.9141 114.83 77.5791 114.83 77.1719C114.83 76.8215 114.925 76.5196 115.114 76.2663C115.306 76.013 115.575 75.8177 115.92 75.6804C116.268 75.5431 116.675 75.4744 117.142 75.4744C117.831 75.4744 118.373 75.62 118.768 75.9112C119.166 76.2024 119.398 76.599 119.464 77.1009Z" fill="white"/>
</g>
<path d="M41 76C41 66.6112 33.3888 59 24 59C14.6112 59 7 66.6112 7 76C7 85.3888 14.6112 93 24 93C33.3888 93 41 85.3888 41 76Z" fill="#FF0000"/>
<path d="M32.075 71.8563C31.8625 71.1125 31.3313 70.5812 30.5875 70.3687C29.3125 70.05 23.8937 70.05 23.8937 70.05C23.8937 70.05 18.5813 70.05 17.2 70.3687C16.4563 70.5812 15.925 71.1125 15.7125 71.8563C15.5 73.2375 15.5 76 15.5 76C15.5 76 15.5 78.7625 15.8188 80.1437C16.0313 80.8875 16.5625 81.4187 17.3062 81.6312C18.5812 81.95 24 81.95 24 81.95C24 81.95 29.3125 81.95 30.6937 81.6312C31.4375 81.4187 31.9688 80.8875 32.1813 80.1437C32.5 78.7625 32.5 76 32.5 76C32.5 76 32.5 73.2375 32.075 71.8563ZM22.3 78.55V73.45L26.7625 76L22.3 78.55Z" fill="white"/>
<rect y="102" width="265" height="50" fill="url(#paint2_linear_36_7526)" fill-opacity="0.45"/>
<g filter="url(#filter2_d_36_7526)">
<path d="M53.4341 134.095C52.6789 134.095 52.0066 133.992 51.4171 133.786C50.8276 133.583 50.3292 133.283 49.9221 132.888C49.5149 132.495 49.2047 132.014 48.9917 131.446C48.7786 130.878 48.6721 130.232 48.6721 129.507C48.6721 128.792 48.7786 128.143 48.9917 127.561C49.2071 126.979 49.5208 126.479 49.9327 126.062C50.3446 125.643 50.8477 125.321 51.4419 125.097C52.0385 124.872 52.718 124.759 53.4803 124.759C54.1858 124.759 54.8155 124.862 55.3695 125.068C55.9258 125.274 56.397 125.568 56.7828 125.949C57.1711 126.328 57.4658 126.779 57.6671 127.302C57.8707 127.823 57.9713 128.399 57.9689 129.031C57.9713 129.467 57.9334 129.867 57.8553 130.232C57.7772 130.596 57.6541 130.915 57.486 131.187C57.3203 131.457 57.1025 131.671 56.8326 131.83C56.5627 131.986 56.236 132.075 55.8525 132.096C55.5778 132.117 55.3553 132.097 55.1848 132.036C55.0144 131.974 54.8842 131.883 54.7942 131.762C54.7066 131.639 54.6498 131.496 54.6238 131.332H54.5811C54.5243 131.474 54.4131 131.603 54.2473 131.719C54.0816 131.833 53.8792 131.922 53.6401 131.986C53.4033 132.047 53.1512 132.07 52.8837 132.053C52.6043 132.037 52.3392 131.972 52.0882 131.858C51.8397 131.744 51.6183 131.58 51.4242 131.364C51.2324 131.149 51.0809 130.883 50.9696 130.565C50.8607 130.248 50.8051 129.881 50.8027 129.464C50.8051 129.053 50.8631 128.694 50.9767 128.388C51.0927 128.083 51.2454 127.826 51.4348 127.618C51.6266 127.41 51.8397 127.246 52.074 127.128C52.3084 127.009 52.544 126.934 52.7807 126.901C53.0482 126.86 53.3016 126.86 53.5407 126.901C53.7798 126.941 53.981 127.006 54.1444 127.096C54.3101 127.186 54.4131 127.283 54.4533 127.387H54.503V126.989H55.6145V130.455C55.6169 130.619 55.6536 130.745 55.7246 130.835C55.7956 130.925 55.8915 130.97 56.0123 130.97C56.1756 130.97 56.3117 130.898 56.4206 130.754C56.5319 130.609 56.6148 130.388 56.6692 130.089C56.726 129.791 56.7544 129.411 56.7544 128.95C56.7544 128.504 56.6953 128.114 56.5769 127.778C56.4609 127.439 56.2975 127.152 56.0868 126.915C55.8785 126.676 55.6358 126.482 55.3588 126.332C55.0819 126.183 54.7812 126.074 54.4569 126.006C54.1349 125.937 53.8034 125.903 53.4625 125.903C52.873 125.903 52.3581 125.993 51.9178 126.173C51.4775 126.35 51.1105 126.6 50.8169 126.922C50.5234 127.244 50.3032 127.621 50.1564 128.055C50.012 128.486 49.9386 128.955 49.9363 129.464C49.9386 130.026 50.0167 130.523 50.1706 130.956C50.3269 131.387 50.5565 131.749 50.8596 132.043C51.1626 132.336 51.5366 132.559 51.9817 132.71C52.4268 132.862 52.9382 132.938 53.5158 132.938C53.7881 132.938 54.0544 132.917 54.3148 132.877C54.5752 132.839 54.8108 132.792 55.0215 132.735C55.2322 132.681 55.4015 132.627 55.5293 132.575L55.8809 133.605C55.7317 133.69 55.5293 133.77 55.2736 133.843C55.0203 133.919 54.7338 133.979 54.4142 134.024C54.097 134.071 53.7703 134.095 53.4341 134.095ZM53.2708 130.885C53.5596 130.885 53.7892 130.829 53.9597 130.718C54.1325 130.607 54.2556 130.442 54.329 130.224C54.4048 130.004 54.4403 129.733 54.4355 129.411C54.4332 129.127 54.3965 128.887 54.3255 128.69C54.2568 128.491 54.1373 128.341 53.9668 128.239C53.7987 128.135 53.5643 128.083 53.2637 128.083C53.0009 128.083 52.7772 128.139 52.5925 128.25C52.4102 128.361 52.2705 128.518 52.1735 128.719C52.0788 128.918 52.0302 129.152 52.0279 129.422C52.0302 129.673 52.0705 129.911 52.1486 130.136C52.2267 130.358 52.3558 130.539 52.5357 130.679C52.7156 130.816 52.9606 130.885 53.2708 130.885ZM58.9748 132V126.545H60.4165V127.508H60.4805C60.5941 127.188 60.7835 126.936 61.0487 126.751C61.3138 126.567 61.631 126.474 62.0004 126.474C62.3744 126.474 62.6928 126.568 62.9556 126.755C63.2184 126.94 63.3936 127.191 63.4812 127.508H63.538C63.6493 127.195 63.8505 126.946 64.1417 126.759C64.4353 126.569 64.7821 126.474 65.1822 126.474C65.6912 126.474 66.1043 126.637 66.4215 126.961C66.7411 127.283 66.9009 127.74 66.9009 128.332V132H65.3917V128.63C65.3917 128.327 65.3112 128.1 65.1502 127.948C64.9892 127.797 64.788 127.721 64.5465 127.721C64.2719 127.721 64.0576 127.808 63.9038 127.984C63.7499 128.156 63.6729 128.385 63.6729 128.669V132H62.2063V128.598C62.2063 128.33 62.1294 128.117 61.9755 127.959C61.824 127.8 61.6239 127.721 61.3754 127.721C61.2073 127.721 61.0558 127.763 60.9208 127.849C60.7882 127.932 60.6829 128.049 60.6048 128.2C60.5266 128.349 60.4876 128.525 60.4876 128.726V132H58.9748ZM69.6513 132.103C69.3033 132.103 68.9931 132.043 68.7209 131.922C68.4486 131.799 68.2332 131.618 68.0746 131.379C67.9183 131.137 67.8402 130.836 67.8402 130.477C67.8402 130.174 67.8958 129.919 68.0071 129.713C68.1184 129.507 68.2699 129.341 68.4616 129.216C68.6534 129.09 68.8712 128.996 69.1151 128.932C69.3613 128.868 69.6193 128.823 69.8892 128.797C70.2064 128.764 70.4621 128.733 70.6562 128.705C70.8504 128.674 70.9912 128.629 71.0788 128.57C71.1664 128.51 71.2102 128.423 71.2102 128.307V128.286C71.2102 128.061 71.1392 127.887 70.9972 127.763C70.8575 127.64 70.6586 127.579 70.4006 127.579C70.1283 127.579 69.9117 127.639 69.7507 127.76C69.5897 127.878 69.4832 128.027 69.4311 128.207L68.032 128.094C68.103 127.762 68.2427 127.476 68.451 127.234C68.6593 126.991 68.928 126.804 69.2571 126.673C69.5885 126.541 69.9721 126.474 70.4077 126.474C70.7107 126.474 71.0007 126.51 71.2777 126.581C71.5571 126.652 71.8045 126.762 72.0199 126.911C72.2377 127.06 72.4093 127.252 72.5348 127.487C72.6603 127.719 72.723 127.997 72.723 128.321V132H71.2884V131.244H71.2457C71.1581 131.414 71.041 131.564 70.8942 131.695C70.7474 131.822 70.571 131.923 70.3651 131.996C70.1591 132.067 69.9212 132.103 69.6513 132.103ZM70.0845 131.059C70.3071 131.059 70.5036 131.015 70.674 130.928C70.8445 130.838 70.9782 130.717 71.0753 130.565C71.1723 130.414 71.2209 130.242 71.2209 130.05V129.472C71.1735 129.502 71.1084 129.531 71.0256 129.557C70.9451 129.58 70.8539 129.603 70.7521 129.624C70.6503 129.643 70.5485 129.661 70.4467 129.678C70.3449 129.692 70.2526 129.705 70.1697 129.717C69.9922 129.743 69.8371 129.784 69.7045 129.841C69.572 129.898 69.469 129.975 69.3956 130.072C69.3222 130.166 69.2855 130.285 69.2855 130.427C69.2855 130.633 69.3601 130.79 69.5092 130.899C69.6607 131.006 69.8525 131.059 70.0845 131.059ZM73.8967 132V126.545H75.3633V127.497H75.4201C75.5195 127.159 75.6864 126.903 75.9208 126.73C76.1552 126.555 76.4251 126.467 76.7305 126.467C76.8062 126.467 76.8879 126.472 76.9755 126.482C77.0631 126.491 77.14 126.504 77.2063 126.521V127.863C77.1353 127.842 77.0371 127.823 76.9116 127.806C76.7861 127.79 76.6713 127.781 76.5671 127.781C76.3446 127.781 76.1457 127.83 75.9705 127.927C75.7977 128.022 75.6604 128.154 75.5586 128.325C75.4592 128.495 75.4094 128.692 75.4094 128.914V132H73.8967ZM77.9885 132V126.545H79.5012V132H77.9885ZM78.7484 125.842C78.5235 125.842 78.3306 125.768 78.1696 125.619C78.0109 125.467 77.9316 125.286 77.9316 125.075C77.9316 124.867 78.0109 124.688 78.1696 124.539C78.3306 124.388 78.5235 124.312 78.7484 124.312C78.9733 124.312 79.1651 124.388 79.3237 124.539C79.4847 124.688 79.5652 124.867 79.5652 125.075C79.5652 125.286 79.4847 125.467 79.3237 125.619C79.1651 125.768 78.9733 125.842 78.7484 125.842ZM82.2259 128.847V132H80.7131V126.545H82.1548V127.508H82.2188C82.3395 127.191 82.5419 126.94 82.826 126.755C83.1101 126.568 83.4545 126.474 83.8594 126.474C84.2382 126.474 84.5684 126.557 84.8501 126.723C85.1319 126.889 85.3509 127.125 85.5071 127.433C85.6634 127.739 85.7415 128.103 85.7415 128.527V132H84.2287V128.797C84.2311 128.463 84.1458 128.203 83.973 128.016C83.8002 127.826 83.5623 127.732 83.2592 127.732C83.0556 127.732 82.8757 127.775 82.7195 127.863C82.5656 127.951 82.4448 128.078 82.3572 128.246C82.272 128.412 82.2282 128.612 82.2259 128.847ZM88.4892 132.103C88.1412 132.103 87.831 132.043 87.5588 131.922C87.2865 131.799 87.0711 131.618 86.9125 131.379C86.7562 131.137 86.6781 130.836 86.6781 130.477C86.6781 130.174 86.7337 129.919 86.845 129.713C86.9563 129.507 87.1078 129.341 87.2995 129.216C87.4913 129.09 87.7091 128.996 87.9529 128.932C88.1992 128.868 88.4572 128.823 88.7271 128.797C89.0443 128.764 89.3 128.733 89.4941 128.705C89.6883 128.674 89.8291 128.629 89.9167 128.57C90.0043 128.51 90.0481 128.423 90.0481 128.307V128.286C90.0481 128.061 89.9771 127.887 89.835 127.763C89.6954 127.64 89.4965 127.579 89.2385 127.579C88.9662 127.579 88.7496 127.639 88.5886 127.76C88.4276 127.878 88.3211 128.027 88.269 128.207L86.8699 128.094C86.9409 127.762 87.0806 127.476 87.2889 127.234C87.4972 126.991 87.7659 126.804 88.095 126.673C88.4264 126.541 88.81 126.474 89.2456 126.474C89.5486 126.474 89.8386 126.51 90.1156 126.581C90.3949 126.652 90.6423 126.762 90.8578 126.911C91.0756 127.06 91.2472 127.252 91.3727 127.487C91.4982 127.719 91.5609 127.997 91.5609 128.321V132H90.1262V131.244H90.0836C89.996 131.414 89.8788 131.564 89.7321 131.695C89.5853 131.822 89.4089 131.923 89.2029 131.996C88.997 132.067 88.7591 132.103 88.4892 132.103ZM88.9224 131.059C89.1449 131.059 89.3414 131.015 89.5119 130.928C89.6824 130.838 89.8161 130.717 89.9132 130.565C90.0102 130.414 90.0588 130.242 90.0588 130.05V129.472C90.0114 129.502 89.9463 129.531 89.8635 129.557C89.783 129.58 89.6918 129.603 89.59 129.624C89.4882 129.643 89.3864 129.661 89.2846 129.678C89.1828 129.692 89.0905 129.705 89.0076 129.717C88.8301 129.743 88.675 129.784 88.5424 129.841C88.4099 129.898 88.3069 129.975 88.2335 130.072C88.1601 130.166 88.1234 130.285 88.1234 130.427C88.1234 130.633 88.198 130.79 88.3471 130.899C88.4986 131.006 88.6904 131.059 88.9224 131.059ZM95.6678 126.545V127.682H92.3013V126.545H95.6678ZM93.0719 132V126.151C93.0719 125.756 93.1489 125.428 93.3027 125.168C93.459 124.907 93.6721 124.712 93.9419 124.582C94.2118 124.451 94.5184 124.386 94.8617 124.386C95.0937 124.386 95.3056 124.404 95.4973 124.44C95.6915 124.475 95.8359 124.507 95.9306 124.536L95.6607 125.672C95.6015 125.653 95.5281 125.635 95.4405 125.619C95.3553 125.602 95.2677 125.594 95.1777 125.594C94.9552 125.594 94.8001 125.646 94.7125 125.75C94.6249 125.852 94.5811 125.995 94.5811 126.18V132H93.0719ZM96.592 132V126.545H98.0586V127.497H98.1154C98.2148 127.159 98.3817 126.903 98.6161 126.73C98.8505 126.555 99.1204 126.467 99.4258 126.467C99.5015 126.467 99.5832 126.472 99.6708 126.482C99.7584 126.491 99.8353 126.504 99.9016 126.521V127.863C99.8306 127.842 99.7324 127.823 99.6069 127.806C99.4814 127.79 99.3666 127.781 99.2624 127.781C99.0399 127.781 98.841 127.83 98.6658 127.927C98.493 128.022 98.3557 128.154 98.2539 128.325C98.1545 128.495 98.1048 128.692 98.1048 128.914V132H96.592ZM102.083 132.103C101.735 132.103 101.425 132.043 101.153 131.922C100.88 131.799 100.665 131.618 100.506 131.379C100.35 131.137 100.272 130.836 100.272 130.477C100.272 130.174 100.327 129.919 100.439 129.713C100.55 129.507 100.702 129.341 100.893 129.216C101.085 129.09 101.303 128.996 101.547 128.932C101.793 128.868 102.051 128.823 102.321 128.797C102.638 128.764 102.894 128.733 103.088 128.705C103.282 128.674 103.423 128.629 103.51 128.57C103.598 128.51 103.642 128.423 103.642 128.307V128.286C103.642 128.061 103.571 127.887 103.429 127.763C103.289 127.64 103.09 127.579 102.832 127.579C102.56 127.579 102.343 127.639 102.182 127.76C102.021 127.878 101.915 128.027 101.863 128.207L100.464 128.094C100.535 127.762 100.674 127.476 100.883 127.234C101.091 126.991 101.36 126.804 101.689 126.673C102.02 126.541 102.404 126.474 102.839 126.474C103.142 126.474 103.432 126.51 103.709 126.581C103.989 126.652 104.236 126.762 104.452 126.911C104.669 127.06 104.841 127.252 104.966 127.487C105.092 127.719 105.155 127.997 105.155 128.321V132H103.72V131.244H103.677C103.59 131.414 103.473 131.564 103.326 131.695C103.179 131.822 103.003 131.923 102.797 131.996C102.591 132.067 102.353 132.103 102.083 132.103ZM102.516 131.059C102.739 131.059 102.935 131.015 103.106 130.928C103.276 130.838 103.41 130.717 103.507 130.565C103.604 130.414 103.653 130.242 103.653 130.05V129.472C103.605 129.502 103.54 129.531 103.457 129.557C103.377 129.58 103.286 129.603 103.184 129.624C103.082 129.643 102.98 129.661 102.878 129.678C102.777 129.692 102.684 129.705 102.601 129.717C102.424 129.743 102.269 129.784 102.136 129.841C102.004 129.898 101.901 129.975 101.827 130.072C101.754 130.166 101.717 130.285 101.717 130.427C101.717 130.633 101.792 130.79 101.941 130.899C102.092 131.006 102.284 131.059 102.516 131.059ZM110.867 128.101L109.482 128.186C109.458 128.068 109.407 127.961 109.329 127.866C109.251 127.769 109.148 127.692 109.02 127.636C108.895 127.576 108.744 127.547 108.569 127.547C108.335 127.547 108.137 127.597 107.976 127.696C107.815 127.793 107.735 127.923 107.735 128.087C107.735 128.217 107.787 128.327 107.891 128.417C107.995 128.507 108.174 128.579 108.427 128.634L109.414 128.832C109.945 128.941 110.34 129.116 110.6 129.358C110.861 129.599 110.991 129.917 110.991 130.31C110.991 130.667 110.886 130.981 110.675 131.251C110.467 131.521 110.18 131.731 109.816 131.883C109.453 132.032 109.035 132.107 108.562 132.107C107.84 132.107 107.265 131.956 106.836 131.656C106.41 131.353 106.16 130.941 106.087 130.42L107.575 130.342C107.62 130.562 107.729 130.73 107.901 130.846C108.074 130.96 108.296 131.016 108.566 131.016C108.831 131.016 109.044 130.965 109.205 130.864C109.368 130.759 109.451 130.626 109.453 130.462C109.451 130.325 109.393 130.213 109.279 130.125C109.166 130.035 108.99 129.966 108.754 129.919L107.809 129.731C107.276 129.624 106.88 129.44 106.619 129.177C106.361 128.914 106.232 128.579 106.232 128.172C106.232 127.821 106.327 127.52 106.517 127.266C106.708 127.013 106.977 126.818 107.323 126.68C107.671 126.543 108.078 126.474 108.544 126.474C109.233 126.474 109.775 126.62 110.171 126.911C110.568 127.202 110.8 127.599 110.867 128.101ZM114.429 132.107C113.868 132.107 113.385 131.993 112.98 131.766C112.578 131.536 112.268 131.212 112.05 130.793C111.832 130.371 111.723 129.873 111.723 129.298C111.723 128.737 111.832 128.244 112.05 127.82C112.268 127.397 112.574 127.066 112.97 126.83C113.368 126.593 113.834 126.474 114.369 126.474C114.729 126.474 115.064 126.532 115.374 126.648C115.686 126.762 115.959 126.934 116.191 127.163C116.425 127.393 116.607 127.682 116.738 128.03C116.868 128.375 116.933 128.78 116.933 129.244V129.66H112.327V128.722H115.509C115.509 128.504 115.462 128.312 115.367 128.143C115.272 127.975 115.141 127.844 114.973 127.749C114.807 127.652 114.614 127.604 114.394 127.604C114.164 127.604 113.961 127.657 113.783 127.763C113.608 127.868 113.471 128.009 113.371 128.186C113.272 128.361 113.221 128.557 113.218 128.772V129.663C113.218 129.933 113.268 130.166 113.368 130.363C113.469 130.559 113.613 130.711 113.797 130.817C113.982 130.924 114.201 130.977 114.454 130.977C114.622 130.977 114.776 130.954 114.916 130.906C115.056 130.859 115.175 130.788 115.275 130.693C115.374 130.598 115.45 130.482 115.502 130.345L116.901 130.438C116.83 130.774 116.684 131.067 116.464 131.318C116.246 131.567 115.965 131.761 115.619 131.901C115.276 132.038 114.879 132.107 114.429 132.107ZM122.458 128.101L121.074 128.186C121.05 128.068 120.999 127.961 120.921 127.866C120.843 127.769 120.74 127.692 120.612 127.636C120.486 127.576 120.336 127.547 120.161 127.547C119.926 127.547 119.729 127.597 119.568 127.696C119.407 127.793 119.326 127.923 119.326 128.087C119.326 128.217 119.378 128.327 119.483 128.417C119.587 128.507 119.766 128.579 120.019 128.634L121.006 128.832C121.536 128.941 121.932 129.116 122.192 129.358C122.453 129.599 122.583 129.917 122.583 130.31C122.583 130.667 122.477 130.981 122.267 131.251C122.058 131.521 121.772 131.731 121.407 131.883C121.045 132.032 120.627 132.107 120.154 132.107C119.432 132.107 118.856 131.956 118.428 131.656C118.002 131.353 117.752 130.941 117.679 130.42L119.167 130.342C119.212 130.562 119.32 130.73 119.493 130.846C119.666 130.96 119.887 131.016 120.157 131.016C120.422 131.016 120.636 130.965 120.797 130.864C120.96 130.759 121.043 130.626 121.045 130.462C121.043 130.325 120.985 130.213 120.871 130.125C120.757 130.035 120.582 129.966 120.346 129.919L119.401 129.731C118.868 129.624 118.472 129.44 118.211 129.177C117.953 128.914 117.824 128.579 117.824 128.172C117.824 127.821 117.919 127.52 118.108 127.266C118.3 127.013 118.569 126.818 118.914 126.68C119.262 126.543 119.67 126.474 120.136 126.474C120.825 126.474 121.367 126.62 121.762 126.911C122.16 127.202 122.392 127.599 122.458 128.101Z" fill="white"/>
</g>
<path d="M41 127C41 117.611 33.3888 110 24 110C14.6112 110 7 117.611 7 127C7 136.389 14.6112 144 24 144C33.3888 144 41 136.389 41 127Z" fill="#1DA1F2"/>
<path d="M33 122.594C32.3625 122.912 31.725 123.019 30.9813 123.125C31.725 122.7 32.2563 122.062 32.4688 121.212C31.8313 121.637 31.0875 121.85 30.2375 122.062C29.6 121.425 28.6438 121 27.6875 121C25.4563 121 23.7563 123.125 24.2875 125.25C21.4188 125.144 18.8688 123.762 17.0625 121.638C16.1063 123.231 16.6375 125.25 18.125 126.312C17.5938 126.312 17.0625 126.1 16.5312 125.887C16.5312 127.481 17.7 128.969 19.2938 129.394C18.7625 129.5 18.2313 129.606 17.7 129.5C18.125 130.881 19.4 131.944 20.9937 131.944C19.7187 132.9 17.8063 133.431 16 133.219C17.5938 134.175 19.4 134.812 21.3125 134.812C27.7937 134.812 31.4062 129.394 31.1937 124.4C31.9375 123.975 32.575 123.337 33 122.594Z" fill="white"/>
<rect y="153" width="265" height="50" fill="url(#paint3_linear_36_7526)" fill-opacity="0.45"/>
<g filter="url(#filter3_d_36_7526)">
<path d="M50.4565 179.101L49.0716 179.186C49.0479 179.068 48.997 178.961 48.9189 178.866C48.8407 178.769 48.7377 178.692 48.6099 178.636C48.4844 178.576 48.3341 178.547 48.1589 178.547C47.9245 178.547 47.7269 178.597 47.5659 178.696C47.4049 178.793 47.3244 178.923 47.3244 179.087C47.3244 179.217 47.3765 179.327 47.4806 179.417C47.5848 179.507 47.7636 179.579 48.0169 179.634L49.0041 179.832C49.5344 179.941 49.9297 180.116 50.1902 180.358C50.4506 180.599 50.5808 180.917 50.5808 181.31C50.5808 181.667 50.4754 181.981 50.2647 182.251C50.0564 182.521 49.7699 182.731 49.4054 182.883C49.0431 183.032 48.6253 183.107 48.1518 183.107C47.4297 183.107 46.8545 182.956 46.426 182.656C45.9998 182.353 45.7501 181.941 45.6767 181.42L47.1646 181.342C47.2096 181.562 47.3185 181.73 47.4913 181.846C47.6641 181.96 47.8855 182.016 48.1554 182.016C48.4205 182.016 48.6336 181.965 48.7946 181.864C48.9579 181.759 49.0408 181.626 49.0431 181.462C49.0408 181.325 48.9828 181.213 48.8691 181.125C48.7555 181.035 48.5803 180.966 48.3436 180.919L47.399 180.731C46.8663 180.624 46.4698 180.44 46.2093 180.177C45.9513 179.914 45.8223 179.579 45.8223 179.172C45.8223 178.821 45.917 178.52 46.1064 178.266C46.2981 178.013 46.5668 177.818 46.9125 177.68C47.2605 177.543 47.6677 177.474 48.1341 177.474C48.823 177.474 49.3651 177.62 49.7605 177.911C50.1582 178.202 50.3902 178.599 50.4565 179.101ZM51.5334 183V177.545H53.0462V183H51.5334ZM52.2933 176.842C52.0684 176.842 51.8755 176.768 51.7145 176.619C51.5559 176.467 51.4766 176.286 51.4766 176.075C51.4766 175.867 51.5559 175.688 51.7145 175.539C51.8755 175.388 52.0684 175.312 52.2933 175.312C52.5182 175.312 52.71 175.388 52.8686 175.539C53.0296 175.688 53.1101 175.867 53.1101 176.075C53.1101 176.286 53.0296 176.467 52.8686 176.619C52.71 176.768 52.5182 176.842 52.2933 176.842ZM57.1593 177.545V178.682H53.8745V177.545H57.1593ZM54.6202 176.239H56.133V181.324C56.133 181.464 56.1543 181.572 56.1969 181.651C56.2395 181.726 56.2987 181.78 56.3745 181.81C56.4526 181.841 56.5426 181.857 56.6444 181.857C56.7154 181.857 56.7864 181.851 56.8574 181.839C56.9284 181.825 56.9829 181.814 57.0208 181.807L57.2587 182.933C57.1829 182.956 57.0764 182.983 56.9391 183.014C56.8018 183.047 56.6349 183.067 56.4384 183.075C56.0738 183.089 55.7542 183.04 55.4796 182.929C55.2073 182.818 54.9954 182.645 54.8439 182.411C54.6924 182.176 54.6178 181.88 54.6202 181.523V176.239ZM60.5719 183.107C60.0108 183.107 59.5279 182.993 59.123 182.766C58.7206 182.536 58.4105 182.212 58.1926 181.793C57.9748 181.371 57.8659 180.873 57.8659 180.298C57.8659 179.737 57.9748 179.244 58.1926 178.82C58.4105 178.397 58.717 178.066 59.1124 177.83C59.5101 177.593 59.9765 177.474 60.5115 177.474C60.8714 177.474 61.2064 177.532 61.5165 177.648C61.829 177.762 62.1013 177.934 62.3333 178.163C62.5676 178.393 62.7499 178.682 62.8801 179.03C63.0104 179.375 63.0755 179.78 63.0755 180.244V180.66H58.4696V179.722H61.6515C61.6515 179.504 61.6041 179.312 61.5094 179.143C61.4147 178.975 61.2833 178.844 61.1152 178.749C60.9495 178.652 60.7566 178.604 60.5364 178.604C60.3068 178.604 60.1032 178.657 59.9256 178.763C59.7504 178.868 59.6131 179.009 59.5137 179.186C59.4142 179.361 59.3633 179.557 59.361 179.772V180.663C59.361 180.933 59.4107 181.166 59.5101 181.363C59.6119 181.559 59.7551 181.711 59.9398 181.817C60.1245 181.924 60.3435 181.977 60.5968 181.977C60.7649 181.977 60.9187 181.954 61.0584 181.906C61.1981 181.859 61.3176 181.788 61.4171 181.693C61.5165 181.598 61.5923 181.482 61.6444 181.345L63.0435 181.438C62.9725 181.774 62.8269 182.067 62.6067 182.318C62.3889 182.567 62.1072 182.761 61.7615 182.901C61.4183 183.038 61.0217 183.107 60.5719 183.107ZM66.0726 183.089C65.6583 183.089 65.2831 182.982 64.9469 182.769C64.6131 182.554 64.348 182.238 64.1515 181.821C63.9573 181.402 63.8603 180.888 63.8603 180.28C63.8603 179.655 63.9609 179.135 64.1621 178.721C64.3633 178.304 64.6309 177.993 64.9647 177.787C65.3008 177.579 65.669 177.474 66.0691 177.474C66.3745 177.474 66.629 177.527 66.8326 177.631C67.0385 177.732 67.2042 177.86 67.3297 178.014C67.4576 178.166 67.5546 178.315 67.6209 178.462H67.6671V175.727H69.1763V183H67.6848V182.126H67.6209C67.5499 182.278 67.4493 182.428 67.3191 182.577C67.1912 182.724 67.0243 182.846 66.8184 182.943C66.6148 183.04 66.3662 183.089 66.0726 183.089ZM66.552 181.885C66.7959 181.885 67.0018 181.819 67.1699 181.686C67.3404 181.551 67.4706 181.363 67.5605 181.121C67.6529 180.88 67.699 180.597 67.699 180.273C67.699 179.948 67.6541 179.667 67.5641 179.428C67.4741 179.188 67.3439 179.004 67.1735 178.874C67.003 178.743 66.7959 178.678 66.552 178.678C66.3034 178.678 66.0939 178.746 65.9235 178.881C65.753 179.016 65.624 179.203 65.5364 179.442C65.4488 179.681 65.405 179.958 65.405 180.273C65.405 180.59 65.4488 180.871 65.5364 181.114C65.6264 181.356 65.7554 181.545 65.9235 181.683C66.0939 181.817 66.3034 181.885 66.552 181.885ZM71.9755 183.103C71.6275 183.103 71.3174 183.043 71.0451 182.922C70.7728 182.799 70.5574 182.618 70.3988 182.379C70.2425 182.137 70.1644 181.836 70.1644 181.477C70.1644 181.174 70.2201 180.919 70.3313 180.713C70.4426 180.507 70.5941 180.341 70.7859 180.216C70.9776 180.09 71.1954 179.996 71.4393 179.932C71.6855 179.868 71.9435 179.823 72.2134 179.797C72.5307 179.764 72.7863 179.733 72.9805 179.705C73.1746 179.674 73.3155 179.629 73.4031 179.57C73.4906 179.51 73.5344 179.423 73.5344 179.307V179.286C73.5344 179.061 73.4634 178.887 73.3214 178.763C73.1817 178.64 72.9828 178.579 72.7248 178.579C72.4525 178.579 72.2359 178.639 72.0749 178.76C71.9139 178.878 71.8074 179.027 71.7553 179.207L70.3562 179.094C70.4272 178.762 70.5669 178.476 70.7752 178.234C70.9835 177.991 71.2522 177.804 71.5813 177.673C71.9128 177.541 72.2963 177.474 72.7319 177.474C73.0349 177.474 73.3249 177.51 73.6019 177.581C73.8813 177.652 74.1287 177.762 74.3441 177.911C74.5619 178.06 74.7335 178.252 74.859 178.487C74.9845 178.719 75.0472 178.997 75.0472 179.321V183H73.6126V182.244H73.57C73.4824 182.414 73.3652 182.564 73.2184 182.695C73.0716 182.822 72.8952 182.923 72.6893 182.996C72.4833 183.067 72.2454 183.103 71.9755 183.103ZM72.4087 182.059C72.6313 182.059 72.8278 182.015 72.9982 181.928C73.1687 181.838 73.3024 181.717 73.3995 181.565C73.4966 181.414 73.5451 181.242 73.5451 181.05V180.472C73.4978 180.502 73.4326 180.531 73.3498 180.557C73.2693 180.58 73.1781 180.603 73.0763 180.624C72.9746 180.643 72.8728 180.661 72.771 180.678C72.6692 180.692 72.5768 180.705 72.494 180.717C72.3164 180.743 72.1613 180.784 72.0288 180.841C71.8962 180.898 71.7932 180.975 71.7198 181.072C71.6464 181.166 71.6097 181.285 71.6097 181.427C71.6097 181.633 71.6843 181.79 71.8335 181.899C71.985 182.006 72.1767 182.059 72.4087 182.059ZM76.2209 183V177.545H77.6626V178.508H77.7266C77.8402 178.188 78.0296 177.936 78.2947 177.751C78.5599 177.567 78.8771 177.474 79.2464 177.474C79.6205 177.474 79.9389 177.568 80.2017 177.755C80.4645 177.94 80.6397 178.191 80.7273 178.508H80.7841C80.8954 178.195 81.0966 177.946 81.3878 177.759C81.6813 177.569 82.0282 177.474 82.4283 177.474C82.9373 177.474 83.3504 177.637 83.6676 177.961C83.9872 178.283 84.147 178.74 84.147 179.332V183H82.6378V179.63C82.6378 179.327 82.5573 179.1 82.3963 178.948C82.2353 178.797 82.0341 178.721 81.7926 178.721C81.518 178.721 81.3037 178.808 81.1499 178.984C80.996 179.156 80.919 179.385 80.919 179.669V183H79.4524V179.598C79.4524 179.33 79.3755 179.117 79.2216 178.959C79.0701 178.8 78.87 178.721 78.6214 178.721C78.4534 178.721 78.3018 178.763 78.1669 178.849C78.0343 178.932 77.929 179.049 77.8509 179.2C77.7727 179.349 77.7337 179.525 77.7337 179.726V183H76.2209ZM86.8974 183.103C86.5494 183.103 86.2392 183.043 85.967 182.922C85.6947 182.799 85.4793 182.618 85.3207 182.379C85.1644 182.137 85.0863 181.836 85.0863 181.477C85.0863 181.174 85.1419 180.919 85.2532 180.713C85.3645 180.507 85.516 180.341 85.7077 180.216C85.8995 180.09 86.1173 179.996 86.3612 179.932C86.6074 179.868 86.8654 179.823 87.1353 179.797C87.4525 179.764 87.7082 179.733 87.9023 179.705C88.0965 179.674 88.2373 179.629 88.3249 179.57C88.4125 179.51 88.4563 179.423 88.4563 179.307V179.286C88.4563 179.061 88.3853 178.887 88.2433 178.763C88.1036 178.64 87.9047 178.579 87.6467 178.579C87.3744 178.579 87.1578 178.639 86.9968 178.76C86.8358 178.878 86.7293 179.027 86.6772 179.207L85.2781 179.094C85.3491 178.762 85.4888 178.476 85.6971 178.234C85.9054 177.991 86.1741 177.804 86.5032 177.673C86.8346 177.541 87.2182 177.474 87.6538 177.474C87.9568 177.474 88.2468 177.51 88.5238 177.581C88.8031 177.652 89.0505 177.762 89.266 177.911C89.4838 178.06 89.6554 178.252 89.7809 178.487C89.9064 178.719 89.9691 178.997 89.9691 179.321V183H88.5344V182.244H88.4918C88.4042 182.414 88.2871 182.564 88.1403 182.695C87.9935 182.822 87.8171 182.923 87.6112 182.996C87.4052 183.067 87.1673 183.103 86.8974 183.103ZM87.3306 182.059C87.5531 182.059 87.7496 182.015 87.9201 181.928C88.0906 181.838 88.2243 181.717 88.3214 181.565C88.4184 181.414 88.467 181.242 88.467 181.05V180.472C88.4196 180.502 88.3545 180.531 88.2717 180.557C88.1912 180.58 88.1 180.603 87.9982 180.624C87.8964 180.643 87.7946 180.661 87.6928 180.678C87.591 180.692 87.4987 180.705 87.4158 180.717C87.2383 180.743 87.0832 180.784 86.9506 180.841C86.8181 180.898 86.7151 180.975 86.6417 181.072C86.5683 181.166 86.5316 181.285 86.5316 181.427C86.5316 181.633 86.6062 181.79 86.7553 181.899C86.9068 182.006 87.0986 182.059 87.3306 182.059ZM91.1428 183V177.545H92.6094V178.497H92.6662C92.7656 178.159 92.9325 177.903 93.1669 177.73C93.4013 177.555 93.6712 177.467 93.9766 177.467C94.0523 177.467 94.134 177.472 94.2216 177.482C94.3092 177.491 94.3861 177.504 94.4524 177.521V178.863C94.3814 178.842 94.2831 178.823 94.1577 178.806C94.0322 178.79 93.9174 178.781 93.8132 178.781C93.5907 178.781 93.3918 178.83 93.2166 178.927C93.0438 179.022 92.9065 179.154 92.8047 179.325C92.7053 179.495 92.6555 179.692 92.6555 179.914V183H91.1428ZM95.2346 183V177.545H96.7473V183H95.2346ZM95.9945 176.842C95.7696 176.842 95.5766 176.768 95.4157 176.619C95.257 176.467 95.1777 176.286 95.1777 176.075C95.1777 175.867 95.257 175.688 95.4157 175.539C95.5766 175.388 95.7696 175.312 95.9945 175.312C96.2194 175.312 96.4112 175.388 96.5698 175.539C96.7308 175.688 96.8113 175.867 96.8113 176.075C96.8113 176.286 96.7308 176.467 96.5698 176.619C96.4112 176.768 96.2194 176.842 95.9945 176.842ZM99.5146 183.103C99.1665 183.103 98.8564 183.043 98.5842 182.922C98.3119 182.799 98.0965 182.618 97.9379 182.379C97.7816 182.137 97.7035 181.836 97.7035 181.477C97.7035 181.174 97.7591 180.919 97.8704 180.713C97.9817 180.507 98.1332 180.341 98.3249 180.216C98.5167 180.09 98.7345 179.996 98.9783 179.932C99.2246 179.868 99.4826 179.823 99.7525 179.797C100.07 179.764 100.325 179.733 100.52 179.705C100.714 179.674 100.855 179.629 100.942 179.57C101.03 179.51 101.074 179.423 101.074 179.307V179.286C101.074 179.061 101.002 178.887 100.86 178.763C100.721 178.64 100.522 178.579 100.264 178.579C99.9916 178.579 99.775 178.639 99.614 178.76C99.453 178.878 99.3465 179.027 99.2944 179.207L97.8952 179.094C97.9663 178.762 98.1059 178.476 98.3143 178.234C98.5226 177.991 98.7913 177.804 99.1204 177.673C99.4518 177.541 99.8353 177.474 100.271 177.474C100.574 177.474 100.864 177.51 101.141 177.581C101.42 177.652 101.668 177.762 101.883 177.911C102.101 178.06 102.273 178.252 102.398 178.487C102.524 178.719 102.586 178.997 102.586 179.321V183H101.152V182.244H101.109C101.021 182.414 100.904 182.564 100.757 182.695C100.611 182.822 100.434 182.923 100.228 182.996C100.022 183.067 99.7844 183.103 99.5146 183.103ZM99.9478 182.059C100.17 182.059 100.367 182.015 100.537 181.928C100.708 181.838 100.842 181.717 100.939 181.565C101.036 181.414 101.084 181.242 101.084 181.05V180.472C101.037 180.502 100.972 180.531 100.889 180.557C100.808 180.58 100.717 180.603 100.615 180.624C100.514 180.643 100.412 180.661 100.31 180.678C100.208 180.692 100.116 180.705 100.033 180.717C99.8555 180.743 99.7004 180.784 99.5678 180.841C99.4353 180.898 99.3323 180.975 99.2589 181.072C99.1855 181.166 99.1488 181.285 99.1488 181.427C99.1488 181.633 99.2234 181.79 99.3725 181.899C99.524 182.006 99.7158 182.059 99.9478 182.059ZM104.644 183.092C104.41 183.092 104.209 183.009 104.04 182.844C103.875 182.676 103.792 182.474 103.792 182.24C103.792 182.008 103.875 181.809 104.04 181.643C104.209 181.478 104.41 181.395 104.644 181.395C104.871 181.395 105.07 181.478 105.241 181.643C105.411 181.809 105.496 182.008 105.496 182.24C105.496 182.396 105.456 182.54 105.376 182.67C105.298 182.798 105.195 182.901 105.067 182.979C104.939 183.054 104.798 183.092 104.644 183.092ZM109.203 183.107C108.644 183.107 108.164 182.988 107.761 182.751C107.361 182.512 107.053 182.181 106.838 181.757C106.625 181.333 106.518 180.846 106.518 180.294C106.518 179.735 106.626 179.245 106.841 178.824C107.059 178.4 107.368 178.07 107.768 177.833C108.168 177.594 108.644 177.474 109.196 177.474C109.672 177.474 110.088 177.561 110.446 177.734C110.803 177.906 111.086 178.149 111.295 178.462C111.503 178.774 111.618 179.141 111.639 179.562H110.211C110.171 179.29 110.065 179.071 109.892 178.906C109.721 178.737 109.498 178.653 109.221 178.653C108.986 178.653 108.782 178.717 108.606 178.845C108.434 178.971 108.299 179.154 108.202 179.396C108.104 179.637 108.056 179.929 108.056 180.273C108.056 180.621 108.103 180.917 108.198 181.161C108.295 181.404 108.431 181.59 108.606 181.718C108.782 181.846 108.986 181.91 109.221 181.91C109.394 181.91 109.549 181.874 109.686 181.803C109.826 181.732 109.94 181.629 110.03 181.494C110.123 181.357 110.183 181.192 110.211 181.001H111.639C111.615 181.417 111.502 181.784 111.298 182.102C111.097 182.416 110.819 182.663 110.464 182.84C110.108 183.018 109.688 183.107 109.203 183.107ZM115.072 183.107C114.52 183.107 114.043 182.989 113.641 182.755C113.241 182.518 112.932 182.189 112.714 181.768C112.496 181.344 112.387 180.853 112.387 180.294C112.387 179.731 112.496 179.238 112.714 178.817C112.932 178.393 113.241 178.064 113.641 177.83C114.043 177.593 114.52 177.474 115.072 177.474C115.624 177.474 116.1 177.593 116.5 177.83C116.902 178.064 117.212 178.393 117.43 178.817C117.648 179.238 117.757 179.731 117.757 180.294C117.757 180.853 117.648 181.344 117.43 181.768C117.212 182.189 116.902 182.518 116.5 182.755C116.1 182.989 115.624 183.107 115.072 183.107ZM115.079 181.935C115.33 181.935 115.54 181.864 115.708 181.722C115.876 181.577 116.002 181.381 116.088 181.132C116.175 180.884 116.219 180.601 116.219 180.283C116.219 179.966 116.175 179.683 116.088 179.435C116.002 179.186 115.876 178.99 115.708 178.845C115.54 178.701 115.33 178.629 115.079 178.629C114.826 178.629 114.613 178.701 114.44 178.845C114.27 178.99 114.141 179.186 114.053 179.435C113.968 179.683 113.925 179.966 113.925 180.283C113.925 180.601 113.968 180.884 114.053 181.132C114.141 181.381 114.27 181.577 114.44 181.722C114.613 181.864 114.826 181.935 115.079 181.935ZM118.74 183V177.545H120.182V178.508H120.246C120.36 178.188 120.549 177.936 120.814 177.751C121.079 177.567 121.397 177.474 121.766 177.474C122.14 177.474 122.458 177.568 122.721 177.755C122.984 177.94 123.159 178.191 123.247 178.508H123.304C123.415 178.195 123.616 177.946 123.907 177.759C124.201 177.569 124.548 177.474 124.948 177.474C125.457 177.474 125.87 177.637 126.187 177.961C126.507 178.283 126.667 178.74 126.667 179.332V183H125.157V179.63C125.157 179.327 125.077 179.1 124.916 178.948C124.755 178.797 124.554 178.721 124.312 178.721C124.038 178.721 123.823 178.808 123.669 178.984C123.516 179.156 123.439 179.385 123.439 179.669V183H121.972V179.598C121.972 179.33 121.895 179.117 121.741 178.959C121.59 178.8 121.39 178.721 121.141 178.721C120.973 178.721 120.821 178.763 120.686 178.849C120.554 178.932 120.449 179.049 120.37 179.2C120.292 179.349 120.253 179.525 120.253 179.726V183H118.74ZM128.746 183.092C128.511 183.092 128.31 183.009 128.142 182.844C127.976 182.676 127.893 182.474 127.893 182.24C127.893 182.008 127.976 181.809 128.142 181.643C128.31 181.478 128.511 181.395 128.746 181.395C128.973 181.395 129.172 181.478 129.342 181.643C129.513 181.809 129.598 182.008 129.598 182.24C129.598 182.396 129.558 182.54 129.477 182.67C129.399 182.798 129.296 182.901 129.168 182.979C129.04 183.054 128.9 183.092 128.746 183.092ZM130.868 183V175.727H132.381V178.462H132.427C132.494 178.315 132.59 178.166 132.715 178.014C132.843 177.86 133.009 177.732 133.212 177.631C133.418 177.527 133.674 177.474 133.979 177.474C134.377 177.474 134.744 177.579 135.08 177.787C135.416 177.993 135.685 178.304 135.886 178.721C136.087 179.135 136.188 179.655 136.188 180.28C136.188 180.888 136.09 181.402 135.893 181.821C135.699 182.238 135.434 182.554 135.098 182.769C134.764 182.982 134.39 183.089 133.976 183.089C133.682 183.089 133.432 183.04 133.226 182.943C133.023 182.846 132.856 182.724 132.726 182.577C132.595 182.428 132.496 182.278 132.427 182.126H132.36V183H130.868ZM132.349 180.273C132.349 180.597 132.394 180.88 132.484 181.121C132.574 181.363 132.704 181.551 132.875 181.686C133.045 181.819 133.252 181.885 133.496 181.885C133.742 181.885 133.951 181.817 134.121 181.683C134.292 181.545 134.421 181.356 134.508 181.114C134.598 180.871 134.643 180.59 134.643 180.273C134.643 179.958 134.599 179.681 134.512 179.442C134.424 179.203 134.295 179.016 134.125 178.881C133.954 178.746 133.745 178.678 133.496 178.678C133.25 178.678 133.042 178.743 132.871 178.874C132.703 179.004 132.574 179.188 132.484 179.428C132.394 179.667 132.349 179.948 132.349 180.273ZM137.197 183V177.545H138.664V178.497H138.721C138.82 178.159 138.987 177.903 139.222 177.73C139.456 177.555 139.726 177.467 140.031 177.467C140.107 177.467 140.189 177.472 140.276 177.482C140.364 177.491 140.441 177.504 140.507 177.521V178.863C140.436 178.842 140.338 178.823 140.212 178.806C140.087 178.79 139.972 178.781 139.868 178.781C139.645 178.781 139.446 178.83 139.271 178.927C139.098 179.022 138.961 179.154 138.859 179.325C138.76 179.495 138.71 179.692 138.71 179.914V183H137.197Z" fill="white"/>
</g>
<path d="M41 178C41 168.611 33.3888 161 24 161C14.6112 161 7 168.611 7 178C7 187.389 14.6112 195 24 195C33.3888 195 41 187.389 41 178Z" fill="#FC9B94"/>
<path fill-rule="evenodd" clip-rule="evenodd" d="M20.3352 180.035C20.7912 181.742 22.3488 183 24.2001 183L30.6 183C32.8091 183 34.6 181.209 34.6 179L34.6 178C34.6 175.791 32.8092 174 30.6 174L26.8281 174C27.3994 174.467 27.8394 175.088 28.084 175.8L30.1 175.8C31.5912 175.8 32.8 177.009 32.8 178.5C32.8 179.991 31.5912 181.2 30.1 181.2L24.7 181.2C23.3126 181.2 22.1696 180.153 22.0173 178.807C21.5784 179.352 20.9995 179.779 20.3352 180.035Z" fill="white"/>
<path fill-rule="evenodd" clip-rule="evenodd" d="M27.2648 176.965C26.8088 175.258 25.2513 174 23.4 174L17 174C14.7909 174 13 175.791 13 178L13 179C13 181.209 14.7909 183 17 183L20.772 183C20.2006 182.533 19.7606 181.912 19.516 181.2L17.5 181.2C16.0089 181.2 14.8 179.991 14.8 178.5C14.8 177.009 16.0088 175.8 17.5 175.8L22.9 175.8C24.2874 175.8 25.4305 176.846 25.5828 178.193C26.0216 177.648 26.6005 177.221 27.2648 176.965Z" fill="white"/>
<defs>
<filter id="filter0_d_36_7526" x="43.9836" y="22.3118" width="90.2877" height="10.7834" filterUnits="userSpaceOnUse" color-interpolation-filters="sRGB">
<feFlood flood-opacity="0" result="BackgroundImageFix"/>
<feColorMatrix in="SourceAlpha" type="matrix" values="0 0 0 0 0 0 0 0 0 0 0 0 0 0 0 0 0 0 127 0" result="hardAlpha"/>
<feOffset dy="1"/>
<feComposite in2="hardAlpha" operator="out"/>
<feColorMatrix type="matrix" values="0 0 0 0 0.0627451 0 0 0 0 0.0823529 0 0 0 0 0.160784 0 0 0 0.7 0"/>
<feBlend mode="normal" in2="BackgroundImageFix" result="effect1_dropShadow_36_7526"/>
<feBlend mode="normal" in="SourceGraphic" in2="effect1_dropShadow_36_7526" result="shape"/>
</filter>
<filter id="filter1_d_36_7526" x="48.6662" y="73.3118" width="70.9224" height="8.79474" filterUnits="userSpaceOnUse" color-interpolation-filters="sRGB">
<feFlood flood-opacity="0" result="BackgroundImageFix"/>
<feColorMatrix in="SourceAlpha" type="matrix" values="0 0 0 0 0 0 0 0 0 0 0 0 0 0 0 0 0 0 127 0" result="hardAlpha"/>
<feOffset dy="1"/>
<feComposite in2="hardAlpha" operator="out"/>
<feColorMatrix type="matrix" values="0 0 0 0 0.0627451 0 0 0 0 0.0823529 0 0 0 0 0.160784 0 0 0 0.7 0"/>
<feBlend mode="normal" in2="BackgroundImageFix" result="effect1_dropShadow_36_7526"/>
<feBlend mode="normal" in="SourceGraphic" in2="effect1_dropShadow_36_7526" result="shape"/>
</filter>
<filter id="filter2_d_36_7526" x="48.6721" y="124.312" width="73.9107" height="10.7834" filterUnits="userSpaceOnUse" color-interpolation-filters="sRGB">
<feFlood flood-opacity="0" result="BackgroundImageFix"/>
<feColorMatrix in="SourceAlpha" type="matrix" values="0 0 0 0 0 0 0 0 0 0 0 0 0 0 0 0 0 0 127 0" result="hardAlpha"/>
<feOffset dy="1"/>
<feComposite in2="hardAlpha" operator="out"/>
<feColorMatrix type="matrix" values="0 0 0 0 0.0627451 0 0 0 0 0.0823529 0 0 0 0 0.160784 0 0 0 0.7 0"/>
<feBlend mode="normal" in2="BackgroundImageFix" result="effect1_dropShadow_36_7526"/>
<feBlend mode="normal" in="SourceGraphic" in2="effect1_dropShadow_36_7526" result="shape"/>
</filter>
<filter id="filter3_d_36_7526" x="45.6767" y="175.312" width="94.8304" height="8.79475" filterUnits="userSpaceOnUse" color-interpolation-filters="sRGB">
<feFlood flood-opacity="0" result="BackgroundImageFix"/>
<feColorMatrix in="SourceAlpha" type="matrix" values="0 0 0 0 0 0 0 0 0 0 0 0 0 0 0 0 0 0 127 0" result="hardAlpha"/>
<feOffset dy="1"/>
<feComposite in2="hardAlpha" operator="out"/>
<feColorMatrix type="matrix" values="0 0 0 0 0.0627451 0 0 0 0 0.0823529 0 0 0 0 0.160784 0 0 0 0.7 0"/>
<feBlend mode="normal" in2="BackgroundImageFix" result="effect1_dropShadow_36_7526"/>
<feBlend mode="normal" in="SourceGraphic" in2="effect1_dropShadow_36_7526" result="shape"/>
</filter>
<linearGradient id="paint0_linear_36_7526" x1="-1.41787e-06" y1="25" x2="260" y2="25" gradientUnits="userSpaceOnUse">
<stop stop-color="#F20378" stop-opacity="0"/>
<stop offset="0.171875" stop-color="#F20378"/>
<stop offset="1" stop-color="#F20378" stop-opacity="0"/>
</linearGradient>
<linearGradient id="paint1_linear_36_7526" x1="-1.41787e-06" y1="76" x2="260" y2="76" gradientUnits="userSpaceOnUse">
<stop stop-color="#FF0000" stop-opacity="0"/>
<stop offset="0.171875" stop-color="#FF0000" stop-opacity="0.8"/>
<stop offset="1" stop-color="#FF0000" stop-opacity="0"/>
</linearGradient>
<linearGradient id="paint2_linear_36_7526" x1="-1.41787e-06" y1="127" x2="260" y2="127" gradientUnits="userSpaceOnUse">
<stop stop-color="#1DA1F2" stop-opacity="0"/>
<stop offset="0.171875" stop-color="#1DA1F2"/>
<stop offset="1" stop-color="#1DA1F2" stop-opacity="0"/>
</linearGradient>
<linearGradient id="paint3_linear_36_7526" x1="-1.41787e-06" y1="178" x2="260" y2="178" gradientUnits="userSpaceOnUse">
<stop stop-color="#FC9B94" stop-opacity="0"/>
<stop offset="0.171875" stop-color="#FC9B94"/>
<stop offset="1" stop-color="#FC9B94" stop-opacity="0"/>
</linearGradient>
</defs>
</svg>
